
		<svg width="3180.772101765771" height="3179.555619138396" xmlns="http://www.w3.org/2000/svg" xmlns:xlink="http://www.w3.org/1999/xlink" version="1.1">
            <g transform="scale(9.038605088288545) translate(10, 10)">
				<g id="main_text" rel="mainfill" name="main_text" xmlns:name="mainText_mainfill" fill="url(#SvgjsLinearGradient1010)" transform="translate(47.24123764038086, 123.07746832430865)"><path d="M4.9072 57.8491375 q-0.244140625 -0.1831054688 -0.439453125 -0.4760742188 q-1.098632813 -1.66015625 -1.586914063 -9.86328125 q-0.1220703125 -1.831054688 -0.1220703125 -3.588867188 t0.073242 -3.2593 t0.19531 -2.8442 q0.2685546875 -3.02734375 0.48828125 -3.637695313 l0.29297 -0.92773 q0.390625 -1.171875 1.782226563 -1.733398438 q0.6103515625 -0.244140625 1.586914063 -0.5615234375 l2.1484 -0.73242 q1.196289063 -0.3662109375 2.490234375 -0.732421875 l2.4902 -0.73242 q2.514648438 -0.7080078125 4.248046875 -1.07421875 l1.3184 5.9326 q-0.6103515625 0.146484375 -1.489257813 0.3173828125 l-5.957 1.123 l-1.6846 0.3418 q-0.732421875 0.1708984375 -1.098632813 0.2685546875 q-0.68359375 2.734375 -0.68359375 7.934570313 q0 6.787109375 0.830078125 10.00976563 q1.025390625 0.244140625 2.221679688 0.48828125 l5.0293 1.0254 l2.3682 0.43945 l-1.3672 5.6396 q-2.197265625 -0.390625 -4.00390625 -0.830078125 q-6.860351563 -1.635742188 -7.873535156 -1.989746094 t-1.2573 -0.53711 z M25.65921875 37.206937499999995 l5.7129 -1.001 l0.14648 4.6143 l0 2.7832 l7.0557 -1.2939 q1.489257813 -2.368164063 1.489257813 -5.395507813 q0 -0.8056640625 -0.146484375 -1.513671875 q-6.005859375 -1.684570313 -16.9921875 -1.684570313 l0.87891 -5.8105 q10.86425781 0.146484375 18.60351563 1.806640625 q1.147460938 0.29296875 2.5390625 2.514648438 q1.318359375 2.099609375 1.318359375 2.9296875 t-0.12207 1.7456 t-0.36621 1.9653 q-0.9033203125 3.881835938 -1.953125 4.833984375 q-0.68359375 0.634765625 -3.857421875 1.611328125 l-0.048828 0.19531 l4.8584 2.1973 q0.341796875 1.46484375 0.341796875 2.893066406 t-0.1709 2.5024 t-0.41504 2.0264 q-0.830078125 2.978515625 -1.782226563 3.61328125 q-1.513671875 1.000976563 -11.49902344 1.904296875 q-3.100585938 0.2685546875 -4.8828125 0.3173828125 z M31.86071875 55.8105375 q4.516601563 -0.390625 6.591796875 -1.049804688 q0.7568359375 -2.490234375 0.7568359375 -3.747558594 t-0.061035 -1.9043 t-0.42725 -0.93994 l-7.0068 -0.70801 z  M61.9629125 54.9560375 q7.153320313 -0.537109375 10.96191406 -1.635742188 q0.1708984375 -1.123046875 0.1708984375 -2.551269531 t-0.073242 -2.6489 l-8.667 -3.1494 q-0.87890625 -0.3173828125 -1.318359375 -1.159667969 t-0.65918 -2.2095 q-0.48828125 -3.002929688 -0.48828125 -4.58984375 q0 -2.514648438 0.1220703125 -3.637695313 q0.1953125 -2.001953125 2.563476563 -2.709960938 q5.541992188 -2.001953125 13.03710938 -3.295898438 l1.4893 5.8838 l-3.125 0.43945 q-4.638671875 0.68359375 -7.71484375 1.46484375 q-0.09765625 0.634765625 -0.09765625 1.66015625 q0 2.099609375 0.09765625 3.295898438 l9.0088 3.9551 q1.489257813 0.634765625 2.001953125 2.221679688 q0.146484375 0.4638671875 0.146484375 0.6591796875 t-0.036621 0.84229 t-0.10986 1.7212 q-0.1953125 2.880859375 -0.48828125 4.943847656 t-1.4282 2.8076 t-2.7588 1.3184 t-3.5034 1.0376 q-3.051757813 0.7080078125 -8.081054688 1.440429688 z M90.6005828125 45.5079375 q0 5.883789063 0.6103515625 10.20507813 l4.8096 -0.24414 q1.318359375 -5.224609375 1.318359375 -10.20507813 q0 -2.001953125 -0.2685546875 -3.564453125 q-1.46484375 -0.732421875 -10.3515625 -0.732421875 l-1.2451 0 q-0.5126953125 0 -1.123046875 0.048828125 l1.0498 -5.6641 q0.4150390625 -0.0244140625 0.7690429688 -0.06103515625 t0.72021 -0.036621 l0.73242 -0.048828 l2.0508 0 q4.833984375 0 10.59570313 1.293945313 q1.831054688 0.4638671875 2.24609375 1.635742188 q0.634765625 1.806640625 0.634765625 5.883789063 q0 7.446289063 -2.270507813 14.40429688 q-0.1953125 0.634765625 -0.4516601563 1.07421875 t-0.89111 0.57373 t-1.4893 0.25635 t-1.6846 0.21973 q-1.806640625 0.1708984375 -2.490234375 0.1708984375 t-1.4648 -0.012207 t-1.709 -0.061035 q-2.44140625 -0.1220703125 -3.295898438 -0.4272460938 t-1.1597 -1.0376 t-0.59814 -2.3438 q-0.68359375 -3.759765625 -0.68359375 -8.569335938 q0 -1.831054688 0.09765625 -3.637695313 l5.542 -1.0986 l0 1.9775 z M108.654790625 50.842237499999996 q-0.1098632813 -4.113769531 -0.1831054688 -7.141113281 l-0.12207 -5.127 q-0.048828125 -2.075195313 -0.08544921875 -3.430175781 t-0.048828 -2.0874 t-0.024414 -1.0742 t-0.012207 -0.39063 l0 -0.073242 q0 -0.87890625 0.5859375 -1.599121094 t1.1475 -1.2817 t1.2695 -1.3672 l3.0029 -3.3691 l3.8818 4.1016 l-3.9307 4.3701 l0.24414 4.5898 l5.0537 -1.0498 l0.53711 5.542 l-5.5908 0.41504 l-0.29297 18.091 l-5.2002 0.39063 q-0.1220703125 -5.395507813 -0.2319335938 -9.509277344 z M123.5839859375 30.1509375 l5.957 -1.1475 l0 7.666 l6.1279 -1.1475 l0.46387 5.542 l-6.4941 0.48828 l-0.46387 13.208 q1.806640625 0.5615234375 3.125 0.87890625 q3.295898438 0.78125 4.028320313 0.9765625 l-1.2939 5.1025 q-5.419921875 -1.196289063 -9.497070313 -2.758789063 q-1.66015625 -0.6103515625 -1.66015625 -2.197265625 z M142.8711265625 50.3173375 l-3.3691 -13.55 l6.1523 -1.4648 l2.6123 13.77 l0.43945 6.3477 l1.1475 0.048828 l3.7109 -13.257 l-1.1963 -5.542 l6.4941 -1.0986 l4.1504 19.8 l1.0498 -0.12207 q0.4638671875 -2.954101563 0.87890625 -6.030273438 l1.7822 -13.647 l6.3477 0.78125 l-1.0254 5.5176 q-1.733398438 9.5703125 -4.541015625 18.09082031 l-7.8857 0.39063 l-3.0029 -10.693 l-0.56152 0 l-2.7344 10.303 l-8.1055 0.39063 z M194.3846171875 61.7187375 q-10.05859375 -1.025390625 -15.77148438 -3.051757813 q-1.049804688 -0.390625 -1.391601563 -4.4921875 q-0.29296875 -3.759765625 0.634765625 -6.518554688 q0.390625 -1.147460938 0.927734375 -1.26953125 q2.294921875 -0.6103515625 4.833984375 -0.87890625 l5.0781 -0.56152 l-0.097656 -3.4424 q-2.661132813 -0.5126953125 -5.285644531 -0.8178710938 t-5.2124 -0.72021 l1.2939 -5.3467 l4.126 0.61035 q5.6640625 0.830078125 9.008789063 2.026367188 q1.611328125 0.5859375 1.611328125 2.368164063 l0.097656 13.379 l-5.2002 0.5127 l-0.14648 -4.1748 l-1.3916 0.26855 q-2.34375 0.390625 -4.467773438 0.9765625 q-0.2685546875 1.293945313 -0.2685546875 2.1484375 q0 1.245117188 0.09765625 1.928710938 q3.442382813 0.78125 10.62011719 1.586914063 l2.002 0.21973 z M200.3417703125 41.0159375 l-0.048828 -4.5166 l5.2002 -0.53711 l0.85449 3.7109 l3.7354 -4.1016 l2.9053 0 l1.2207 5.7129 l-3.833 0.83008 q-1.831054688 0.390625 -3.784179688 0.8544921875 l-0.3418 16.699 l-5.5176 0.48828 z M217.0166421875 43.700937499999995 q0 -3.271484375 0.68359375 -3.784179688 t1.5381 -1.0376 t1.8799 -1.0376 t2.1362 -0.97656 t2.1851 -0.83008 q2.294921875 -0.78125 3.430175781 -0.78125 t1.8433 0.10986 t1.2939 0.354 q1.342773438 0.5615234375 1.513671875 1.635742188 q0.8056640625 5.102539063 0.8056640625 12.15820313 l0 1.4404 l-11.694 0.14648 l0 3.1738 q1.904296875 0.4638671875 4.541015625 0.8544921875 l4.1992 0.68359 q1.611328125 0.244140625 3.295898438 0.5615234375 l-1.4404 5.3467 q-6.713867188 -1.049804688 -14.2578125 -3.393554688 q-1.733398438 -0.5615234375 -1.782226563 -2.026367188 z M228.8327421875 45.702937500000004 q0 -2.294921875 -0.4638671875 -4.833984375 q-0.9765625 0 -1.5625 0.09765625 t-1.1719 0.26855 t-1.1963 0.39063 q-1.440429688 0.5126953125 -1.904296875 0.87890625 l0 4.3945 l6.2988 -0.68359 l0 -0.5127 z"/></g><defs id="SvgjsDefs1002"><linearGradient id="SvgjsLinearGradient1010"><stop id="SvgjsStop1011" stop-color="#b88746" offset="0"/><stop id="SvgjsStop1012" stop-color="#fdf5a6" offset="1"/></linearGradient></defs><g id="SvgjsG1009" transform="translate(0.04237872362136841, 0.3000005781650543) scale(3.1779217424665442)" rel="mainfill" name="outline_container" xmlns:name="outlineContainer_mainfill" fill="url(#SvgjsLinearGradient1010)"><g xmlns="http://www.w3.org/2000/svg" fill=""><path d="M103.1 39.2a53 53 0 0 0-4.7-11.5 54.6 54.6 0 0 0-7.3-10.1 58 58 0 0 0-5.5-5.3l-1.5-1.2-.8-.6-.8-.5-.8-.5-.4-.3-.3-.1-1.6-.9-.7-.4-.7-.4-.7-.4-.3-.1-.4-.2-3-1.4a36.3 36.3 0 0 0-7.5-2.5h-.3l-2.2-.4h-1c.4 0 .3-.2.2-.4s-.5-.3-.8-.2h-.3a2.3 2.3 0 0 0-1.5-.9.9.9 0 0 1-.8-.1H59c-.2 0-.4 0-.5.2h-.3l-.6-.3-.6-.1a3.5 3.5 0 0 0-1.8-.4h-.4a.7.7 0 0 0-.7 0h-4.9a1.2 1.2 0 0 0 .9.1h1.1v.2h-.8c-.1.1-.1.1 0 .2h-1c-.2 0-.2 0-.2.1h-1c-.5 0-.6 0-.6.2H47c-.2 0-.3.1-.4.2h-.5v-.1c0-.1.1-.3.4-.5s-.3-.3-.4-.4H46c0-.2-.2-.3-.3-.5h-.4l-.5.3c0 .2 0 .3.4.4h.1c.1 0 0 .1-.1.2l-.9.3c-.1 0-.1.1 0 .2h.8v.2h-2.9l-.5-.3h-.2v.2h-.7v.2h-.3L37 3.5l-.8.2-.8.2-.8.2h-1L32 5.3l-1.1.5h-.3c-.1-.1-.2-.2-.4-.2h-.1a3.7 3.7 0 0 1 0-.5l.3-.3v-.3h-.2l-.5.2h-.3a.8.8 0 0 0-.5.4c-.1.2-.1.2-.3.1h-.4l-.6.5.8-.2c-.1.3-.3.7-.1.9s0 .1-.2.2h.3l-2 1.6h-.2l-.3.2-.3.2c-.4.1-.5 0-.5-.3v-.2a.8.8 0 0 0 .6-.1l.4-.3c.2-.1.3-.1.3 0s.4.1.6 0l.3-.2c.1-.1-.1-.1-.1-.1h-.4l-.1-.4h-.3v.2c0 .2-.1.3-.4.4h-.2v-.2c0-.1.1-.2-.1-.2s-.3 0-.4-.1h-.1a1.2 1.2 0 0 0-1.1.3c-.3.2-.4.4-.3.6l.3.5c.1.1-.1.3-.1.4h-.5a1.2 1.2 0 0 1-.8.4l-.5.3-.3.3c-.1.1-.2.3-.1.3h.2c.1.1.1.1.3 0a2.3 2.3 0 0 0 1-.4h.1l-.5.4-.7.4-.5.3c-.2-.1-.2-.3-.6-.2a5.1 5.1 0 0 1-.1.7l-.3.4h-.2a1.9 1.9 0 0 0 .1-.5.7.7 0 0 0-.5-.5h-.2l-.4.4c-.1.1-.1.2 0 .2h.2c-.4.4-.4.4-.6.3h-.3v.5l-.2.2c0-.2-.4-.1-.5-.2s-.4.5-.1.6h.1a2.1 2.1 0 0 0 .6.8v.2h-.5l.4.4v.2c0 .1-.2.2-.2.3v.3s0 .1-.1.2H18c-.2.5-.2.6 0 .7v.8h.1a.5.5 0 0 1 .5-.4h.1l-.3.7c-.3.1-.3.1-.3 0v-.2h-.2v.2c0 .2.2.2.2.5h.4a1.2 1.2 0 0 1 .3-.5h.2V17.3l-.3.3h.3c.1 0 .1.1.1.2h.3c.3-.1.5-.1.6 0h.1l.3-.2h.2v.1l-.2.4c-.1.1-.1.2 0 .2h.3l.4-.4c.2-.2.3-.3.3-.5s.1-.3.2-.4h-.4c-.1 0-.1-.1-.1-.2l.2-.2h.2l.6-.4h-.3c-.2-.1-.5 0-.6-.2H21a.8.8 0 0 1-.6.3l-.4.3a.5.5 0 0 0-.1.4h-.2c-.1 0-.1-.2 0-.3l.4-.4v-.7h-.4l-.8.3c-.3.1-.3 0-.3-.3v-.2l.4-.4a3.6 3.6 0 0 0 .9-1c.1-.1.1-.2 0-.3h-.3c-.1-.1-.1-.3-.2-.5V13a2.6 2.6 0 0 0 .4-.6h.2v.2a.9.9 0 0 0 .5-.3l.5-.3c.1 0 .2 0 .1.2l-.2.3a2.1 2.1 0 0 0-.6.8c0 .2.1.2.2.3h.3l.7-.5h.1c-.2.2 0 .2.1.3s.2.1.5-.2v.2l-.4.3c-.2.2-.2.4.1.3h.1c.2 0 .3 0 .3.1l-.2.3c-.1.2 0 .2.2.1h.4c0 .3.4.1.6.2s0-.4-.3-.6a1 1 0 0 1-.1-.7l.3-.7c.1-.2.2-.4.1-.5s-.5-.1-.4-.4l-.5.2c-.2.1-.4.3-.3.4s.1.1 0 .3-.1-.2-.4-.1-.2 0-.2-.1c-.1-.1.1-.4.2-.6l.4-.2.5-.4.3-.3v.2c-.5.7-.2.9 1 .2l1.3-.6h.8v-.2-.1l.8-.4h.4l1.1-.5 1.5-.7h.4c.4-.1.7-.1.7.1s0 .1-.2.2h-.2l-.2.5h.3c.3-.2.4-.2.4 0h.3l.3.2.5-.2c.2 0 .2-.1.2-.2s-.1-.2.1-.3.4-.3.6-.3a.9.9 0 0 0 .7-.1h.5c-.1.1 0 .1.1.2s-.1.1 0 .2h.5l-.2.2h-.2l-.4.2c-.1.1-.1.1-.1.2l.3.2-.2.2h-.9v.3h-.5l-.6.2a1 1 0 0 0 0 .1c-.2-.1-.2-.2-.2-.4l.2-.2c.2-.1.3-.1.3 0h.1l.4-.2a.2.2 0 0 0 .1-.3h-.4c-.4.2-.6.1-.7 0h-.1l-.2.3a1.1 1.1 0 0 1-.4.5c-.1-.1-.3-.2-.3-.4a.1.1 0 0 0-.1-.2l-.4-.2h-.8c-.2-.1-.2 0-.4.2h-.5v.1s.2.3-.2.6l-.3.2v.1h.3c.4-.2.4-.2.2.1l-.2.4h1.7c.3-.1.4-.1.6 0h.1l-.9.5.2-.2h-.3L29 13h-1.4c-.1 0-.1-.1 0-.1h-.2v.3l-.3.5a.6.6 0 0 0-.5.1l-.5.3-1.2.8-.6.3h-.5c-.2 0-.1-.2-.2-.3h-.2l-.2.2-.3.7a18.4 18.4 0 0 1-1.4 1.4c.4 0 .4.1.2.6h.4l.7-.5.2.3.9-.2h.4c.1-.1 0-.1 0-.2s-.2-.4.4-.9l.6-.2h.2v.2h.2l.3-.3h.1c.2 0 .4-.1.4.1v.1h.2a.9.9 0 0 1 .4-.4l.5-.3v-.2.3h.2l1.1-.6a2.2 2.2 0 0 0 .8-.6h.2l3.9-1.8a63.7 63.7 0 0 1 10-3.3h.2l1.4-.3h.7l.2-.2h3.4l.3-.2h.5c0 .1 0 .2.1.2l.6.2h.1l.2-.2h.4a.2.2 0 0 0 .1.2l.5.2h.3v-1h.1v.2h1.6c.1.3.5.3.9.3-.3-.2-.1-.4.3-.4h.3c.1 0 .1-.1.1-.1H58l.4.6.5.2h.5a.9.9 0 0 1-.5-.4l1.2.2h.1a.6.6 0 0 1-.5.4h4a.3.3 0 0 1 .1.3c-.1.2-.3.2-.3.4s-.1.2.3.3l.8.2.8.3a1.7 1.7 0 0 0 1 .2c-.3-.1-.7-.3-.8-.5h-.3c-.2 0-.2-.1-.2-.2l-.4-.2v-.2h.4l.6.2h.5l.5.2.5.3c.2.1.3.2.3.4l1 .5h-.3l.6.2.3.2H69c-.2.1-.1.1.1.3h.2l1.1.6h.6c.2-.1.3-.2.1-.5s-.1-.2 0-.2h.1l3.1 2a.2.2 0 0 1 0 .2H74l-.3-.3-.4-.3-.4-.2-.7-.2c.2.2.2.4.1.5s0 .2-.2.2-.2.1-.1.3a2.2 2.2 0 0 0 1 .8l.7.3c.2 0 .4 0 .4-.2h1.4l-.2.2a1.6 1.6 0 0 0 .1.4h.1c0 .1 0 .1 0 0l.3.3a2 2 0 0 1 .7.7c-.1 0-.1.1-.1.2l.3.2h.2l.6.4h.3c.4.1.4.1.4-.1s-.1-.3 0-.3l.4-.4.2.2.2.3h-.2c-.1 0 0 .2.1.3l.3.2h.3v.2a.6.6 0 0 1 0 .2c0 .2 0 .2.2.4l.3.2v.2c-.1.1-.3.1-.6-.1h-.2s0 .1.1.2h.4c.1.1 0 .1-.1.1h-.1v.2h.2c.2 0 .2-.1.3-.2s.2-.1.5.1h.1a.2.2 0 0 1 .1.2v.4h.3l.5.2.5.4a1.3 1.3 0 0 1 0 .4l-.4-.2-.3-.3h-.1a1 1 0 0 0 0 .2v.2h.1a.9.9 0 0 0 .5.6h.3l.2.2v.2a1.4 1.4 0 0 1 .5.5h.2v.8h.2a1.7 1.7 0 0 1 .7 1.1h.3l.2.2v.2h-.3c-.1 0-.1.1-.1.2l.2.2.3.2.3.5a1.7 1.7 0 0 1 .5.8v.2l.3.3c.2.2.4.5.7.6h.7c.1-.1.2-.1.2.1l.2.5h-.1c-.3-.2-.4 0-.4.3a4.6 4.6 0 0 0 .4.7l.4.6a12.7 12.7 0 0 1 .8 1.1l.6.8a.9.9 0 0 1 .2.5v.2c.1.3.2.4.3.5h.5l.2.3h.1c.3.3.3.5.2.8v.2a10 10 0 0 0 .5 1l.2.4a.2.2 0 0 1 0 .2h-.2c.2.7.2.7.4.8s.4.1.5 0a.8.8 0 0 0 0-.2l-.3-1v-.2a.3.3 0 0 0 0-.2v-.2h-.3v-.3c0-.2 0-.3.1-.3h.2c0-.3.2-.2.3-.1h.3a.5.5 0 0 1 .2.4v.5c0 .1.2.4.2.5s0 .2-.1.2h-.3c.2.4.2.8.4 1.2v.3h-.2v-.2h-.1v.1a1.5 1.5 0 0 1 .1.9.4.4 0 0 0 .1.3l.3.3c-.1.2-.2.1-.3 0a.5.5 0 0 1-.2-.3 1.3 1.3 0 0 1-.1-.6v-.2h-.2a.8.8 0 0 0 0 .6 1 1 0 0 1 .2.5.8.8 0 0 0 .1.5 1.3 1.3 0 0 1 .3.6 1.8 1.8 0 0 0 .5 1.2 1 1 0 0 1 .3.7.6.6 0 0 1 0 .5.8.8 0 0 0 0 .7l.3.4c.1.1.2 0 .2-.2v-.2h.1c.1.2 0 .3 0 .4s0 .5-.2.5-.1.2 0 .3l.3.7a.5.5 0 0 1 0 .6h-.1a1.3 1.3 0 0 1 0 .7.4.4 0 0 0 .1.3l.2.4-.3.8a3.3 3.3 0 0 1 .2 1 1.8 1.8 0 0 1 .4.9c0 .1 0 .3-.1.3h-.2c0 .2 0 .4-.2.4H94v-.2a.8.8 0 0 0 0 .3 1.2 1.2 0 0 1 0 .9v.2a.6.6 0 0 0 .1.4 1 1 0 0 1 .2 1v.8l-.5.5a5.4 5.4 0 0 1 0 .8c.1.2.3 0 .4 0v.4h.1c.1 0 .1.2 0 .3h-.1a.5.5 0 0 0-.1.6v.2l-.2.6-.2-.2c-.1 0-.1.1-.2.2a3.1 3.1 0 0 0-.1.9v.3l-.2.2a.6.6 0 0 0 0 .6h-.1c-.3.2-.4.2-.3.7v.5l-.2.6a.9.9 0 0 0-.2.4c0 .2.1.1.2.2v.7l-.2.3v.2h.1l.3-.2h.2l-.2-.3a2.7 2.7 0 0 1 0 .4c0 .2.1.2.1.4l-.2.6-.2.6-.4.5-.3.2h-.2a8.6 8.6 0 0 0-.3 1.1l.2.7c-.2 0-.3-.3-.5 0v.9h-.1a.5.5 0 0 0-.2.5 1 1 0 0 1-.3.7l-.7.8h-.2c-.1 0-.2.2-.4.3a.7.7 0 0 0-.2.5 2.7 2.7 0 0 1 0 .3l-.5.6v-.4h-.2a12.4 12.4 0 0 1-.5 1.4.6.6 0 0 0-.1.4 1.1 1.1 0 0 1 0 .6.5.5 0 0 0 .1.4.3.3 0 0 1 0 .2h-.1c-.1-.1-.2-.1-.4.1l-.7.8-.2.3a3.6 3.6 0 0 0-.9 1.2c-.1.3-.2.3-.4.4a1.2 1.2 0 0 0-.7.6c-.1.2 0 .4-.2.6l-.5.5-.6.7a4.4 4.4 0 0 0-.6 1.1l-.4.6h-.1a.7.7 0 0 0-.5.5.9.9 0 0 1-.6.4c-.1.1-.3.2-.2.3a.6.6 0 0 1 .1.5c-.1.3 0 .5.4.4l-.4.3c-.3 0-.7.2-.9 0h-.2l-.4.2v.2a.9.9 0 0 0 0 .3c0 .1.3.1.5 0l.3-.2a1.3 1.3 0 0 0-.7.4l-.6.4a.3.3 0 0 0-.2.3c0 .1-.1.2-.1.2h-.6l.5-.5V84h-.2l-.4.3-.4.7c.1 0 .1.2.1.3v-.2h.1l-.2.2h-.2L76 89a2.1 2.1 0 0 1-.7.7l-.2.2-.5.3-1.3.8-.3.2-.3.2-.7.4-.7.4h-.1l-.6.3-.3.2h-.1v-.2h.3c.1 0 .1-.1.1-.1h-.1l-.3.2h-.4l-.2.2v.2a.6.6 0 0 1-.6.3h-.6a1 1 0 0 1-.1.5l-.9.4-1.4.5h-.2l-.2.2h.1l-.7.1-1.1.4-.5.2h-.1a.5.5 0 0 0-.2-.3h-.3c-.2.1-.3.2-.2.2s.1.3-.3.5H62v-.2c0-.2-.3-.2-.6-.1l.7-.5.6-.2h-.4l-.4.2a1 1 0 0 1-1 .2h-2l-.7.2c-.4.2-.9 0-1.3.2h-1.7c-.1 0-.1-.1 0-.2s.2-.3-.2-.3h-.6l-.9.3v.3h-1.4c-.2 0-.6-.1-.5-.2s-.1-.4-.1-.6l.2-.2h.2c-.1.2.3.2.4.3h1c.2 0 .5-.2.4-.3s.1-.2 0-.3-.3-.1-.4-.2V94H53l-1 .6h-.5v-.2H51l-.2.2h.1c.1.1-.1.3-.4.2h-2.9v.1h.6a.8.8 0 0 1 .7.2l.4.3.5.2h.2c.1 0 .3.2.2.2l-.3.4h-.6V96.5h-.1c0-.1.1-.1 0-.2H49a1.7 1.7 0 0 0-1 .1h-.1l-1.5-.2 2-.4h.2l.4.2h.3l-.4-.2h-.5l-1-.2c-.4-.1-.5-.2-.6-.4s-.1-.3 0-.5h-1.5l-.4.2h-.4a1.1 1.1 0 0 0-.9.1h-1c.2.2.4.4.3.7l-.7-.2c0-.1-.1-.2-.3-.3l-.2-.2-.2-.3-.4-.3h-.6c-.2 0-.2-.1-.2-.2s-.1-.2-.2-.2l-1-.3-.7-.2h.3l-.2-.4-.4-.2h-.5l-.8-.2h-.3c0 .1 0 .1-.1.1h-.6l-2-.9-.3-.2h-.2l-.5-.2h.9a1.5 1.5 0 0 0-.4-.7l-.3-.3h-.4c0 .1 0 .2-.2.2s0 .1.1.1.1.2-.1.2l-.9-.3-1-.4-1-.3h-.1c.2-.1.4-.2.3-.4a.5.5 0 0 1 0-.2c0-.2-.2-.5-.5-.7l-.5-.4-.6-.5c-.2-.1-.2-.2-.1-.3s0-.2-.2-.3l-.8-.5a4.7 4.7 0 0 0-1.2-.6c0 .1.2.3.1.4l.7.3.2.2h-.3l-.7-.5c-.2-.2-.6-.3-.7-.6s-.4-.1-.5 0l.7.6a.4.4 0 0 1 .1.2h-.2l-.4-.2a.6.6 0 0 1-.4-.3 1.4 1.4 0 0 0-.5-.6l-.8-.7.6.3.4.2H24l-.3-.2a1.3 1.3 0 0 1-.6-.7l.3.2c.2.1.2.1.3-.1h.2V86h.4v-.1-.2h.5c0-.1 0-.2.1-.2s.2-.2.2-.3a.5.5 0 0 0-.2-.4l-1-.5c-.2 0-.3.1-.2.3v.2h-.1a1.4 1.4 0 0 1-.6-.5 2.7 2.7 0 0 0-.6-.8l-1.2-1h-.1a.1.1 0 0 0 0 .1l.3.4v.1s-.7 0-1.2-.4l-.7-.7-.6-.7a.3.3 0 0 1-.1-.3l-.3-.4-.5-1-.3-.3h-.2a.2.2 0 0 0-.2.3 1.6 1.6 0 0 0 .3.6h.3l.5.5c.1.1.1.3 0 .3H18c-.2 0-.3 0-.3.1h-.1l-.7-.2c-.1 0-.1.1-.1.2v.3l-.5-.3c-.2-.2-.3-.3-.2-.4s.1 0 .1-.2V80h-.1v-.2l-.3-.5-.7-1.3v-.2h.1c.1 0 .1 0 .1-.1v-.2c.3.2.5.5.7.2l-.2-.6-.2-.7.7 1 .8.5c.3.2.5.6.9.5s-.4-.7-.7-.9H17c-.1 0-.1.2-.2.1l-.3-.3-.8-1a6.4 6.4 0 0 1-1-1.4l-.2-.3-.2-.2h-.1c0 .2 0 .3-.1.4l.2.4v.1h-.1l-.2-.2c-.2-.1-.2-.2-.3.1h-.1l-.5-.9-.5-1 .7 1-.2-.4c-.2-.4-.2-.5 0-.6s.1-.2 0-.5.1-.2.2-.1l.4.4v-.3c0-.1.1-.3.3 0l.2.3h.2a.4.4 0 0 0-.1-.3 4.6 4.6 0 0 1-.8-.9h-.1a3.6 3.6 0 0 1-.8-.8l-.4-.4c-.1-.1-.1-.1-.2 0v.2l-.4-.5-.2-.2-.9-2.2-.5-1.4v-.2c0-.2.2.1.2-.1a1.6 1.6 0 0 0-.1-.8l-.5-1.6c-.1-.2 0-.4.1-.4h.2c.1 0 .2-.2.1-.4v-.4l-.7-1.3h-.2v.4a1.2 1.2 0 0 1-.1.7v-2a1.7 1.7 0 0 0-.3-1.2h-.4L8.1 58v-.7c0-.2 0-.5-.1-.7v-2a1.1 1.1 0 0 0 0-.3v-1.5h.1A1.5 1.5 0 0 0 8 52c0-.2.1-.2.2-.2a.7.7 0 0 0 .1-.7h-.1l-.6.8v-.2-.6-2.6l.4-2.3v-1l.2-1 .2-1 .2-1a37.5 37.5 0 0 1 2.8-7.8l.3-.5.3-.5.6-1.1.3-.6.3-.5.6-1.1.6-1 .6-.9.6-.9.4-.3a.5.5 0 0 0 .2-.3l.2-.4V26l.2-.3.3-.4h.4v-.2l.4-.7a1.3 1.3 0 0 0 .1-.4l.4-.5v.2l.2-.4c.1-.2.1-.2.3-.1h.3l.3-.3a1.1 1.1 0 0 0 .4-.6v-.4h-.4c.3-.6.3-.7-.1-.5h-.1a2.4 2.4 0 0 1 0-.4v-.2h.1c.1 0 .1.2.1.3s.1.2.4 0l.3-.2c-.1.2-.1.4.1.4h.2c.3-.2.3-.4.2-.5a.5.5 0 0 0-.5 0c-.2.1-.3-.1-.2-.4l.4-.5h.5c.3.1.3.3.2.7a.5.5 0 0 0 0 .2h.2l.2-.2a1.2 1.2 0 0 0 0-.4 1.1 1.1 0 0 1 .3-.7l.2-.3c0-.1-.1-.2 0-.4a.1.1 0 0 0 0-.2l-.2-.2h-.4l-.7.6-.3.3-.3.3h-.1c-.1.1-.1.2-.1.2h.3v.2h-.2c-.3-.1-.3-.1-.5.4v.2H19c-.2.1-.2.2-.3.4h-.2l-.2-.4h-.2c0 .1.1.2 0 .4a1.1 1.1 0 0 1-.3.5c-.1.2-.1.2 0 .3h.5v.2l-.7.7-.6.3c-.1.1-.1.1-.2.4l-.2.2c-.2.2-.3.3-.5.2l-.2.2v.3l-1 .8v.3l-.3.3H14c-.1-.3-.1-.4-.6 0v.4h-.2a1 1 0 0 1-.2.5l-.2.2a1.2 1.2 0 0 0-.3.7v.2c-.2 0-.3 0-.2-.3l.3-.8a.9.9 0 0 0-.6.5l-.4.3h-.4c0-.1 0-.2.1-.3v-.2c0-.1 0-.2-.1-.3h-.1l-.2.2a.8.8 0 0 0-.3.6.6.6 0 0 0 0 .3.6.6 0 0 1-.1.6c-.2.3-.1.5 0 .6s.1.1.1.2v.9h-.1a.2.2 0 0 1 0-.2v-.3c-.1-.1-.3-.1-.5.2s-.5.5-.7.5v.2l.2.3-.6 1.6-.3.2h-.1v.1s.3 0 .4-.2h.3l.2-.2h.1v.2c-.1.2-.2.2-.3.2H9a4.7 4.7 0 0 1 .1.6 2.5 2.5 0 0 1-.1.4.3.3 0 0 1-.2.2.5.5 0 0 0-.2.3v.5c-.1.2-.2.3-.3.2s-.1-.2-.3.1l-.2.3a.4.4 0 0 0 .1.4c.1.1.1.2 0 .4s.1-.2.2-.2v.2h.2a4.5 4.5 0 0 1 0 .5.6.6 0 0 0 .1.4l-.2.7-.5 1.7-.4 1.7v5.4c0 .7-.1 1.3-.2 2S7 49.9 7 50.7s-.2 1-.3 1.5v1.2l-.4.4-.2.3a2.2 2.2 0 0 0-.1 1.3c0 .4.2.7.2 1.1a.7.7 0 0 1-.1.6c-.1.1 0 .3-.1.4s-.2-.1-.2-.2-.2 0-.2.1a1.8 1.8 0 0 0 .1 1.4l.2.3a.8.8 0 0 1 .2.4 3.7 3.7 0 0 0 .3 1.2l.4.9.5.9v.7c0 .1 0 .2-.1.3a1.1 1.1 0 0 0 0 .8 1 1 0 0 0 .6.7c.1 0 .2.1.2.3a6.8 6.8 0 0 1 .3 1.1v.5l.2.2.4 1.2h-.7c-.2.1-.2.1-.4-.3l-.3-.5h-.1a5.8 5.8 0 0 0 .6 2.2l.3.3.2.2.3.5c.1.2 0 .4.1.5v.2H9l.2-.2.4.9h.1c-.1 0-.1.2 0 .3a1.9 1.9 0 0 0 .4.7l.5.6a1.6 1.6 0 0 1 .3.8c0 .1 0 .2-.1.1s-.3-.2-.3 0v.4c0 .1-.4-.2-.3.2s-.1.5 0 .8c-.1.1-.2.2-.4.1s-.2.1 0 .4l.4.5.4.4a1.5 1.5 0 0 1 .5.9.9.9 0 0 0 .2.4l.5.5.2.3a5.5 5.5 0 0 0 1.1 1.8c-.4-.6-.2-.6-.1-.8h.2l.5.3.4.3a1.3 1.3 0 0 1 .8.4l.3.2h.3l.4.4h.1v-.2a.6.6 0 0 1-.3-.3.3.3 0 0 1 0-.2h.3l1 1.3c-.1.3-.2.6-.6.5h-.1a.3.3 0 0 0 0 .2l.7.9c.2.2.4.5.4.7s.1.5.4.7l.7.7c-.1.2 0 .3.2.5l.3.2a1.3 1.3 0 0 1 .5.6v.3l.3.3h.2c.2 0 0-.2.1-.3l.5.2.3.2a3.5 3.5 0 0 0 .8.7c.4.3.5.5.5.8a1 1 0 0 0 0 .1 1.1 1.1 0 0 0 .4.6l.7.5.8.3.8.3h.4l-.3-.2c-.1-.1-.1-.2 0-.2h.5v.1h-.2l.8.7c.1.1.1.2.1.2l.8.9.7.7a2 2 0 0 0 1 .4l-.2-.2c-.1-.1 0-.2.2-.2l1.3.3.5.5.7.5.5.3.9.3.5.2.6.4a1.4 1.4 0 0 0 .9-.1h.4c.2.1.3.3.2.3h-.1c-.3.1-.3.2.1.4l.3.4.3.3 1 .4h.5c.3 0 .3-.1.4-.2s.4-.1.6 0l1.2.4h.8l.7.9 1 .2h1.7c.2-.1.3-.3.6-.3s0-.1 0-.1H44l-.9-.4s-.1-.1 0-.1h.5l.5.3.4.3h.7l.4-.2.7.2.5-.3h.2c.2-.1.3-.2.4-.3h.4c.1.2.4.4.1.6s0 .2.1.2h1v-.2h.5c.1.1.1.2.2.3s.1.3 0 .4l.8.5h1.4c.2 0 .6-.1.5-.2a.5.5 0 0 0-.4-.3h-.3c0-.1.2-.1.3-.2h.5l.6.2h.4a1.5 1.5 0 0 0 1.1.2h.5c.6.1.8.1 1.1-.2h.5l.4.2h1.5a13.7 13.7 0 0 0 2.7-.4h.3a8.2 8.2 0 0 0 1.9-.5l1.9-.4.8-.3.5-.2 1.9-.7.9-.5.6-.2.8-.2 1.5-.7v-.6h.7l.5-.2h.5a1.7 1.7 0 0 0 1-.3l1.3-.8.3-.2c.2-.3.8-.7.7-1l.3-.2h.9c.1 0 .2-.1.1-.2s.1-.2.2-.4l.4-.2h.7a9.3 9.3 0 0 1 1.5-1 5.6 5.6 0 0 0 1.4-1.1l-.4.2c-.2.1-.2 0-.1-.2s.4-.4.4-.6l.2-.3.5-.5c.1-.1.2-.1.2 0s-.1.2.1.1.1 0 0 .1 0 .1 0 .1h.2l.8-1h.1c.3 0 .4 0 .6-.3a3.2 3.2 0 0 1 1.1-.9h.1a.7.7 0 0 0 .3-.4v-.2l.3-.2c.3 0 .6-.2 1-.5l.6-.5.7-.5.4-.4c.1-.2.2-.3.1-.4s0-.2.1-.4l.2-.3a3.5 3.5 0 0 0 .3-1.1l-.3.4h-.1c-.1 0-.1 0 0-.1l.3-.4.5-.4.4-.8-.7.7c0 .1-.1.2-.2.3h-.3c-.1 0-.1-.2 0-.4l.3-.2.4-.7a4.8 4.8 0 0 1 .9-1.3h.1a.1.1 0 0 1 0 .1l-.2.5.9-.7.4-.4.5-.6-.2.3-.3.6-.5.8-.3.4-.3.4-.9 2-1.2 1.6-.6.8-.7.7a52.2 52.2 0 0 1-5.7 5.4l-1.4 1.1-.7.5-.7.5-.7.5-.7.5-.7.5-.7.5-1.5.9-.4.2-.4.2-.8.4-.7.4-.8.4-1.5.8-2 .9-2.6 1-1.2.4-.6.2H64l-1.2.4-.6.2h-.6l-2.2.7-1.3.3-.6.2-.6.2c-.8.2-1.3.5-1.4.8h2.2l2.1-.3 2.1-.4.9-.2.9-.2h1.6l1.4-.2 1.4-.2 1.7-.5a78.8 78.8 0 0 0 7.2-3.3l1.7-.9 1.7-1 1.6-1 .8-.5.4-.3.4-.3 2.2-1.6 1.1-.9 1-1 .5-.5.5-.5 1-1.1.5-.5.5-.6.9-1.1.2-.3.2-.3.4-.6.9-1.2.8-1.2.4-.6.2-.3.2-.3 1-1.6.2-.4.2-.4.4-.8.4-.8.4-.8.4-.8.2-.4.2-.4.7-1.7v-.4l.2-.4.3-.9.3-.9.3-.9.3-.9.2-.5v-.5l.5-1.9.5-1.9c.2-.6.3-1.3.4-2l.2-1c.1-.3.1-.7.1-1s.1-1.1.2-1.6a7.6 7.6 0 0 0 0-1.3V56c0-.3-.1-.6-.2-.9a14 14 0 0 0-.4-1.6c-.3-.8-.6-1-1 0h-.1l-.3 1.3c-.2-.1-.2-.1-.2-.3v-.4l-.4-.4a1.4 1.4 0 0 0 .2-.7 3.2 3.2 0 0 1 .1-.8c0-.2 0-.5.1-.8-.1 0-.2 0-.3-.2v-.3a4.5 4.5 0 0 1-.1-.6v-1.1c0-.3.1-.5.3-.4s.2 0 .1-.2v-.4c0-.1.1-.3.1-.2s.2.2.3.5a4.7 4.7 0 0 0 .2 1.4 1 1 0 0 0 .1-.3 10.7 10.7 0 0 0-.2-1.9.8.8 0 0 1 0-.5 1.5 1.5 0 0 0 .1-.9 2.5 2.5 0 0 0 0-1.2c0-.2-.1-.4-.2-.5s-.1-.3-.2-.4a.7.7 0 0 1 0-.6v-.2c-.1-.2-.3-.3-.2-.6a6.9 6.9 0 0 1-.2-1.5.9.9 0 0 0-.1-.5v-.2a4.6 4.6 0 0 1 .1.7h-.1c-.1-.3-.2-.5-.4-.4h-.1v-.3l-.2-.4-.3-.3v-.6h.2a.5.5 0 0 1 0-.2v.4c.1.2.2.3.3.4s.2-.1.1-.2a3.7 3.7 0 0 1-.2-.8.8.8 0 0 1 0-.4c.1-.2.1-.4 0-.7s-.2-.3-.3-.1v.2a2.3 2.3 0 0 1-1.1-.5c-.2-.1-.2-.3-.3-.6s0-.4.1-.3.3 0 .3-.2h.1v.2h.2c.1 0 .1.1.2.3v.3c0 .2.2.3.2.2v-.5a1 1 0 0 1-.2-.4 3.7 3.7 0 0 1 0-.5l.4 1.1.2.6.2.7.4 1.3.2.7.2.7.3 1.3v1.4l.3 1.4.2 1.4c.1.5.2.9.2 1.4a23.2 23.2 0 0 0 .7 4.4c.3.6.6.2.8-1.3s.2-1.1.2-1.7v-2.5c1.3-1.9.7-4.9 0-7.6zM21.5 16.7c0 .1-.1.3-.3.4zm-2.4.3h.1v.3H19zm-.5-1.7zm3.3-3.9zm2-1.5l-.4.4-.3.3v-.2l.2-.3h.5l.3-.2zm.5-.8zm.2-1.1h-.2v-.2l.2-.2h.2c.1.1.1.2.2.2s-.2.1-.4.2zm4.9-2.2h.1l-.1.1zm2 2.4zm.3 1.3zm-2 1.7l.2-.2a.4.4 0 0 1 .5-.1c.1 0 .1.1 0 .2zm.8.3h-.4l.3-.2h.1zM23.1 16h.2c0 .1-.1.3-.3.4h-.1c-.2.1-.1-.1.2-.3zm-.8 1s-.1.1 0 .1zm1.2.7zm2.8-2.6l-.4.4-.7.5-.7.6a3.3 3.3 0 0 1-1.2.8c-.3 0-.5.2-.8.5h-.1l.7-1h.2l.8-.5 1.1-.9.6-.4h.7zm1.5-1.3l-.6.5c0-.4.1-.4.5-.6h.4zm4.6-2.7l-.8.4h.1v-.2a2.7 2.7 0 0 1 1-.5h.1zm1.1-.6H33l.6-.3v.2zm39.6 4.1zm8.3-1.9l.7.6H82c-.2-.2-.4-.2-.6-.4v-.2zm-.4-.3l-.3-.2V12zM72.5 8c.2 0 .2-.2.3-.2h.5l1.3.6h-.3c-.4-.1-.5-.1-.5.2a1.1 1.1 0 0 1 0 .3h-.2l-1-.7h-.1zm-.6-.3h.1l.1.1H72c-.1 0-.1 0-.1-.1zM69.4 6l.6.3h-.1c-.2-.1-.3 0-.3.1l1 .4h.4l-.3-.2v.2c0 .1-.1.1-.3 0l-.6-.2c-.2 0-.3-.1-.3-.2l-.2-.2s.1-.1.1-.2zm-2.7-1l.6.2.6.2 1.2.4h-.6c-.2.1-.2-.1-.3-.1H68c0 .1-.1.2-.3.2H67l-.7-.9v-.1zm-2.5-.7zm-5.4-1.1c0 .1-.1.2-.2.3h-3.4c-.1-.1-.1-.2-.1-.2a.2.2 0 0 1 .1-.2h2.1zm-2.2-1.9c-.1.1-.1.1 0 0zm-.1.2h.5l.8.2h-1.4zm-.8-1zm-3.6.3h.5c.4 0 .4 0 .6.2s.2.1.5.1h.4l.2.4h.4l.2-.2c.1-.1.1-.1 0-.2s-.2-.2.2-.3h.6a3.9 3.9 0 0 0 0 .5c0 .2-.1.3-.6.2h-.2l.2.2h-2.9c-.2-.1-.2-.2-.1-.3s.1-.4 0-.6zM49.2 3a.9.9 0 0 1-.8.2h-.2zm-4.5.8h.1c.1.1 0 .1-.1.2h-.2zm-1.1.2h.5c.1.2.5.3.9.3h.1c-.1.1-.2.3-.1.4l-.3.2h-.2a.2.2 0 0 1 0-.1c0-.1 0-.1-.2-.1h-.7l-.6-.2zm-.4 1l-.2.2h-.1c-.1-.1-.1-.1 0-.2h.3zm-8.5 3.5zm2.8.5h-.8c.1.1.2.1.2.2h-1.2c0-.2-.2-.3-.2-.5h.2a1.3 1.3 0 0 1 .8.4h1zm1-.2h-.6v-.1h.6s-.1 0-.1.1zm-.6-.5zm1-2c-.1.1-.4.3-.3.4s-.3.7-1 .6h-.1l.3-.4h-.2l-.8.2-.6.3h.8l-.3.4h-.3v-.4h-.3l-1.1.5-.4.2-.5.3h-.7l-.9.2a1 1 0 0 1 .1-.3l.3-.4c.1-.1.1-.2-.1-.3l.9-.4c.1.2.3.2.6.3h.2c.2-.1.3-.1.3 0s.1.2.2.1h.3c-.1 0-.2-.1-.1-.1a.6.6 0 0 0 .1-.5v-.6l4.8-1.5h.2c.1 0 .1.1.1.2v.3a2.1 2.1 0 0 0-.3.7h-.5l-.6.2h-.3zm1.7-.1zm-1.2 2.2v.2h.2zm.9 0a.2.2 0 0 1 0-.2zm.7-.3zm0-.2h.4l-.4.2zm.6.3h-.5l.3-.2h.2zm.6-.1zm.6-.3h-.1l.2-.2h-.1zm.5-.9h-.1c0 .2-.3.4-.3.6l-.2.2h-.2c-.3.1-.4.2-.5 0s-.3-.1-.5 0h-1.9c-.2-.1-.2-.2-.1-.3l.2-.2c.4-.4.5-.5 0-.7s0-.1.1-.1h.4a.6.6 0 0 1 .2.8h.2c.1-.2.3-.3.3-.5l.2-.2c-.1-.1-.1-.1 0-.2l.7-.3.7-.2.9-.3h.5l.4.3c.1.1.1.1 0 .2s-.1.1-.1.2.1.2-.1.2zm1.9.8h-.9l-.4-.2-.3-.2c0-.1 0-.1.2-.1s.3-.1.5-.2h.3c-.1.1-.1.2 0 .3h.6a.1.1 0 0 1 0 .2zm.2-1.9c-.1 0-.1 0-.1-.1h.1zm0-.7c.1-.3.7-.4.8-.6l-.5-.5c-.1-.1.2-.3.3-.3h1v.1s0 .2.2.2.2.2 0 .2h-.5c0 .2-.1.3-.5.3h-.3c0 .4-.2.4-.5.4zm1.6.8zm-1.2.6h.2a.8.8 0 0 1 .6 0h-.7zm1 1H46l.2-.2c-.1-.1 0-.2.2-.3h1.2-.1c-.1.1-.4.1-.4.2zm.9 1.1h.5zm1-2.6v.2c.1.2.1.3-.5.5h.3c.3.2.3.3 0 .5h-.1l-.1-.2c-.2-.2-.2-.3.2-.4h-.3c-.1 0-.2-.1-.1-.2s.1-.4-.1-.5h-.2l.3-.6.4-.2.2-.2h.1c.1 0 .1 0 .1.1l-.4.2.7.4c.2 0 .3 0 .3.1s0 .1-.1.2h-.3c-.4-.2-.4-.1-.3 0zm3.1.2h-.1c-.1-.1-.1-.2-.3-.1l-.4.2h-.4a.3.3 0 0 1 0 .2H50a.9.9 0 0 1-.7 0h-.1a1 1 0 0 1 .5-.8c.3 0 .7 0 .9.1h.3a1.9 1.9 0 0 1 1.1-.2l.5.2-.5.3zm-1.2-1.9a.4.4 0 0 1-.1.2h-.3l.2-.3h.2zM52.2 7H52c.2 0 .3.1.3.2zm.1-.5h-.2l.2-.2h.3c.1.1 0 .1-.3.2zm1.1 1.7h.3zm-.1-1.4h.3c.1 0 0 .1-.1.1zm5.8.2H59c-.1 0 0-.1.1-.1zm1.9.2l.3.2h-.2zm4.8 3.1zm1.5-1.9h-.1v-.1h.1zm.1-.5zm1.1 3.7h-.2c-.1-.1-.1-.2 0-.1h.1c.3-.1.3 0 .2 0zM69 9v-.2c.1 0 .1.1.1.1h.2c.2.1.3.2.3.3v.1A2.1 2.1 0 0 0 69 9zm.9 3.4l-.6-.3c-.1-.1-.2-.2-.1-.3v-.2l.6.3a.4.4 0 0 0 .1.3c.2 0 .2 0 0 .2zm.4-2.4l-.8-.3h.4l.4.2zm-.2-.9h.1c.1.1.1.1 0 .1h-.1zm4.2 2.8l-.3-.2-.6-.3v-.2c0-.1 0-.1.1-.1l.4.2v.2h.1l.3.2zm.1-1.4H74l-.2-.2a1.1 1.1 0 0 0-.7-.4c-.1-.1 0-.1 0-.1h-1.3c-.1 0-.1.1-.1.2s-.2.1-.6 0c0-.2-.1-.3 0-.5h.1c0-.1 0-.2-.2-.3l-.6-.4-.5-.3c-.4-.2-.5-.2-.8-.1h-.7l-.3-.2-.3-.4-1-.8h-.1v.1c.1.1.3.2.3.2h-1l-.7-.2-.3-.2h-.3c.1.2-.2.2-.2.3s-.1.1 0 .2h.4l1 .3.7.4h.1c.1.1.1.1-.1.2s-.2.1 0 .2h.6a.1.1 0 0 1 0 .2l-3-.7-.7-.3h-.7a4.2 4.2 0 0 1-1.3-.3l.9.2h.6c.1-.1.1-.3-.1-.3a1.5 1.5 0 0 1-.7-.5c-.2-.2-.1-.3-.1-.4h.6v-.1h-.2a1.1 1.1 0 0 1-.9-.3l-.2-.2-.4-.2a6.7 6.7 0 0 1-2-.7h-.1v.3h.7c.2 0 .4.2.4.3v.2h-.8c-.2.1-.2.1.1.3h-.1v.2h-.5c-.1-.1-.2-.1-.2-.2s0-.2-.2-.2l-1-.2-.5-.2H56a1.4 1.4 0 0 0 .8.3h.4c.8 0 .9.1.8.5s.4.1.3.3h.2c.1.1.2.1.1.2h-.7l-.2-.2c-.4 0-.5-.4-1-.4l-.6-.2c-.1 0-.3-.1-.2-.2s0-.2-.1-.3 0-.1.3-.1l-.8-.2h-.5a.4.4 0 0 0 0 .5 1 1 0 0 1 .2.5h-.2a.6.6 0 0 0 .2-.4l-1.6-.2c-.1-.2-.2-.3-.1-.5s-.1-.6-.6-.9h-.2l-.2.2H52a.7.7 0 0 0-.3-.5h.3a1 1 0 0 0 .7.2h1c.2-.1.3-.2.2-.3h1l-1-.2h-.2l-.8.2h-.1c-.1-.1-.1-.1 0-.2h.3c.2-.3.7-.5.8-.8h-.8c0 .1 0 .2-.1.2h-1c.2.1.2.2.1.2s-.3.2-.5.4H51v.4l-.9-.2a.6.6 0 0 1 .5-.1h.4c.1 0 .1-.1.1-.2a.7.7 0 0 0-.6-.1h-.3v-.1l.3-.3h2.1l.3-.2h1.9c-.2.2-.3.5.2.7h.1l2.6.3c.2 0 .5 0 .5-.2h.4c0 .1-.2.2 0 .2s.5.3.5.5h.6c0-.1.1-.2-.1-.3l-.3-.3c-.1-.1-.1-.1.2-.2s.5-.1.5-.3l1.5.3H61a1.4 1.4 0 0 0 .8.2h.2c.1.1 0 .1-.1.2s-.2 0 0 .1l.6.2c.2 0 .3.2.2.2v.2h.1l.5.4h.3l.5-.3h.3l.2.2h.6a1.1 1.1 0 0 1 .8.2c.2.1.1.2.1.3a.4.4 0 0 0 0 .2.7.7 0 0 0 .5.4l.9.2h.8l.8.5h-.8l.4.3 1.2.5 1.1.2-.5-.3a1.7 1.7 0 0 1-.7-.5l.9.3.3.5a1.3 1.3 0 0 0 .7.3h.8c0 .3.4.5.7.8l.9.5c.4.3.5.5.5.7zM62.1 7.2zm12.4 2.1c-.3-.3-.2-.5.1-.5h.2c-.2.2-.2.2.1.4l.2.2v.2h-.2l-.3-.2zm.7 3l-.5-.3h.8l-.2-.4h.5a.6.6 0 0 1 .5.4.4.4 0 0 1-.1.4c-.1.1.1.3-.1.4h-.2zm1.4 3.7h-.3l-.5-.4h.1l.5.2.3.3h-.1zm.4-2.7l-.2-.4a1.3 1.3 0 0 1 .6.4v.4l-.4-.2zm.7 3.8h-.1a.3.3 0 0 1-.2-.3l.3.2zm.1-.7h-.2l.3.2zm2.5-3.7H80l-.2-.2a1 1 0 0 0-.3-.5l-.5-.4h-.3c-.1 0 0 .2.2.3l.3.2s.1.1 0 .1-.1.1 0 .2l.5.4h-.3v.3H79c-.2-.1-.3-.1-.2.1l.3.5c.1.2.1.2-.2.1l-.4-.2a1.1 1.1 0 0 0-.8-.6l-.6-.2-.4-.4c-.1-.1-.1-.2 0-.2h.3c.3.2.3.2.4.1h.6l-.2-.4-.3-.2h-.8a.3.3 0 0 1-.2-.4c.1-.3-.1-.5-.5-.9l-.5-.5c.3 0 .6.2.8.1l-.6-.7c-.1-.1-.1-.2-.1-.2s-.1-.3-.2-.4l-.7-.5 2.1 1.2.4.3h.1l.8.5h.1l1.3.9.7.5a.4.4 0 0 0 0 .1v.4l.4.3.2.2h-.3c0 .1-.1 0-.2.2zm1.1 6.5c0 .1 0 .2-.2.1l-.5-.2-.3-.3c0-.2.1-.2.1-.4l.8.7zm-.2-3.2h.1c.1 0 .1.1 0 .1h-.1zm1 4.5H82c-.2-.2-.2-.3-.1-.4h.4c.1.1.1.2.1.3zM82 15h-.1v-.1h.2l.7.7zm.8 6.3h-.1v-.2.2zm.7-6.2h-.1c-.1-.1 0-.1 0-.1h.1zm0-.6a1.1 1.1 0 0 0-.6-.4h-.2l.4.6v.4a2.8 2.8 0 0 0-.8-.5l-.4-.4c-.1-.1-.2-.1-.3 0s0 .1 0 .1h-.2c-.3-.3-.5-.6-.3-.7a.8.8 0 0 1 .7 0 4 4 0 0 0 .5.8l.2-.2v-.5l3.5 3h-.2l-.4-.3-.7-.7-.9-.7zm.9 2.7l-.2-.3c.1-.1 0-.3 0-.5h.2l.6.8v.1zm.2 1.6h-.1l-.3-.3zm-.1-2.4h.2v.1h-.2zm-.4 1zm.4 6.4zm.6 0a.6.6 0 0 0-.5-.4h-.1a1.7 1.7 0 0 1-.3-.7c0-.1.1-.1.1-.1s.2-.1.4.1l.6.6a.6.6 0 0 1 .1.5c-.2.3-.4.2-.5.1zm-.3-4.7h.1l.2.3zm.6 5.5h-.1v-.2h.2zm-.1-5.5h-.4l-.2-.2c.1-.2 0-.4.2-.5h.4-.1l.2.4c-.1.4-.1.5-.3.4zm.4.9h.1l.3.3zm.3 4.7zm.1 1.6l-.1.1zm.4-2zm1.4 3.5l-.1.1zm.3-.1H88v-.5a.9.9 0 0 1 .5.6c-.3.1-.4.1-.5 0zm.8-5.5c-.2-.1-.3-.4-.5-.4l.2.3a6.9 6.9 0 0 1 0 .8h-.1l-.2-.2a1.1 1.1 0 0 0-.6-.5l-.2-.2h.1c.2 0 .2-.1.1-.3s.1-.2.2-.1l.4.2-.4-.6h-.7l-.9-1.2c-.1-.4.1-.6-.2-1.1a4 4 0 0 1-1-1.1c0-.1-.1-.2 0-.2h.4v-.2c-.1-.1-.2-.2-.2-.3a1.3 1.3 0 0 0-.3-1c-.1-.1-.1-.2 0-.2l.3.2.3.4a1.3 1.3 0 0 0 .6.5h.3v.3a.4.4 0 0 1 .1.3h-.2l-.3-.3-.6-.8.2.8.3.3c.4.3.4.4.3.6s0 .3.1.4l.5.6c.2.2.2.4.1.5h-.2c-.1 0 .1.3.2.4l.6.3c.1.1.2 0 .1-.1s0-.1 0-.1h.2a4.4 4.4 0 0 0 1 1.1v.5a2.1 2.1 0 0 0 .4.5v.2h-.1a2.3 2.3 0 0 0-.5-.1zm.6 2v.2h-.2v-.2zm-.1 4.3a2.9 2.9 0 0 1 0-.3l.3.5c-.1 0-.1.1 0 .4a.2.2 0 0 1 0 .2h-.1a1.1 1.1 0 0 1-.4-.7zm.4 3.2a.4.4 0 0 1-.1-.3h.1v.3zm.5-1.5H90a1.2 1.2 0 0 1 .1.5H90v-.4c-.1-.2 0-.2.1-.1H90a2.1 2.1 0 0 1 0-.3h.1l.2.2c0 .1 0 .2-.1.2zm-.3-5zm.5-2.4v.2c-.1-.1-.1-.1 0-.2-.2-.1-.3-.2-.3-.4 0-.1-.2-.3-.2-.4v-.2l-.2-.2a1.5 1.5 0 0 0-.7-.5c-.1 0-.1.1-.1.2h-.2l-.6-1-.2-.4-.3-.5a.6.6 0 0 1-.2-.5 1.3 1.3 0 0 0-.1-.3c-.4-.3-.4-.4-.4-.7l.2.2.2.4v.1l.4.3v-.4l.3.3.5.5v.2l.2.2.3.3v.2h-.3l-.3-.2c0 .1.1.4 0 .4v.2a.5.5 0 0 0 .6 0 .4.4 0 0 1 .2-.3l.7.8V21H90a.5.5 0 0 0 0 .2.6.6 0 0 0 .3.4l.6.3v.2c.1.3-.1.4-.1.6l.2.3v.2l-.2-.3a.4.4 0 0 1-.4 0zm.6 1.6v.2zm.3 2.8zm-72-6zm1.2-2.1h.2v.2h-.1zM19 21.4l-.2.2zM15.4 25h.1l-.3.3a.5.5 0 0 1 0-.1zM12 28.5h.5l.5-.8.2-.2h.1l-1.4 1.9-.3.5.2-.4c0-.2-.1-.4-.3-.3a4 4 0 0 1 0-.5v-.2zm-.9.2v-.2l.3-.2c-.1.4-.2.4-.4.5s.1 0 .1-.1zm-.1 1.8h.1c.1 0 .1.1 0 .2l-.2.4-.2.5h-.1a4.8 4.8 0 0 0 .4-1.1zm-1.4.6h.1v.1zm0 2.7zm-.9 1.9l.2-.2v.3h-.3zM8.9 70l-.2-.2v-.3h.1v.4zm.9-4.8l-.1-.1zm3 12.9l-.5-.4H12l-.2-.2a.3.3 0 0 1-.1-.2v-.2c.3-.3.2-.9 0-1.5l.6.8.3.4.3.5.6.9h-.2v.2c.1.2-.1.3-.3.2zm1.5 3h-.1l-.6-.5a1 1 0 0 1 .7.3c0-.2.1.1 0 .1zm3.9-.7v-.2h.2l.2.3zm2.4 3.1h.2c.2 0 .3 0 .5.3l-.6-.2v-.2zm-.6 1.6c-.3-.4-.3-.5-.1-.7h.3l.2.3a7 7 0 0 0 .9.8l.3.4.3.7h-.1l-.5-.3h-.4l-.3-.2c-.2-.2-.5-.5-.5-.7zm1.5 2.3l-.4-.2V87h.1l.4.4s-.1 0-.1.1zm-.4.2l-.3-.2c-.2-.1-.3-.3-.2-.3h.3l1.3 1.1zm1.6.3l-.4-.3v-.1h.1l.4.3h-.1zm.5-.8h-.3l-.2-.5c-.1-.1 0-.2.2-.1h.5l.5.3h.1c.1.1.1.1 0 .2s-.3.1-.5-.1l-.3-.2H23v.1l.2.4zm.6 3.9h-.4v-.2h.1l1 .4h-.6zm2.4-.1h-.3c-.2 0-.2 0-.1.2l.2.3a.2.2 0 0 1-.1.2h-.2l-.6-.6h.1c.2-.1.2-.1.1-.2l-.4-.2h-.6a.9.9 0 0 1-.8-.7h.4l1 .2a2.2 2.2 0 0 1 1.3.6c.1.3.1.3 0 .4zm.4-.1l-1-.6c-.1-.1-.2-.2-.1-.2h.3l.6.5.3.3zm2-.8l-.2-.2a1.3 1.3 0 0 0-.8-.5h-.3c-.1 0-.2-.2-.1-.2s.2-.2.5 0h.3a1.3 1.3 0 0 1 .9.5l.6.6c-.3.2-.7-.1-.9-.1zm.8 4.1h-.3a.1.1 0 0 1 0-.1h.1l.3.2zm.7-.8c-.2.1-.4.1-.7-.1h.6l.1.3zm2.6 1.3h.2l.3.2h-.4c-.1.1-.2 0-.1 0zm.5 1.4l-.7-.2h.1l.6.2zm1.8-.7c-.3-.1-.7-.1-.8-.4l-.3-.3-.3-.2 1.5.7a.2.2 0 0 0 0 .2c.1.2.1.3-.1.2zm3.1-1h.4l.7.3c.1.1.2.2 0 .2h-.6l-.6-.2h-.2v-.1zm2.6 3.2a6 6 0 0 1-1.3-.2c-.1 0-.2 0-.1.1s.1.2-.1.2h-.4c-.3 0-.4.1-.3.3s-.1.2-.2.2h-.5a1.4 1.4 0 0 0-1-.4h.2c.2 0 .2-.1.1-.2h.1a8.7 8.7 0 0 0 1.6.1l-.5-.2h-.5l-.3-.2h-.1c0-.1-.4-.3-.3-.4h.1l1.6.5h.3l.6.2h.7l.6.5zm1 .3zm.6.3l-.2.2-.4-.4v.1l.3-.2.2-.3.8.2-.3.2c-.1 0 0 .1.1.2h.1c-.3.1-.5.1-.5.2zm.7.9zm2.5-1h.3c.2.2 0 .3-.2.3zm.3-1.3h-.2l-1.3-.3h-.2c-.1-.2.1-.4.4-.5h.2a2.2 2.2 0 0 1 1.1.4v.1s-.1.1 0 .2.2.3.1.4zm.6-.5h.2c.1 0 .2.1.1.1v.2h-.2l-.2-.2zm4.4 0h.2c.1 0 .1.1 0 .1h-.1zm2.4-.2zm-1 4zm.1-3.2h-.2a.3.3 0 0 1 0-.2h.3c.1.1.1.2-.1.2zm.5 2.6s0-.1.1-.1zm1-1h.3c.1-.1-.1 0-.3-.1zm.8.5zm.8-.9h-.3c-.1-.2-.3-.3-.7-.4s-.4-.2-.4-.3.1-.2.3-.2h.3l.9.4h.1a.5.5 0 0 1-.1.4zm2.1-1.5h-.2s0-.1.1-.1h.1zm2.2-.4l-.2.2c0 .1 0 .2-.2.2h-.6l-1 .4h1l-.7.2h-.3a.3.3 0 0 1 0-.4c.1-.2.4-.3.7-.5h.2l.8-.2h.3a.1.1 0 0 1 .1 0zm16.4-3.8h.7c.1 0 .1 0 0 .1h-.1l-.6.2zm1 0l-.4.4-.4.2a.1.1 0 0 1 0-.1 1.9 1.9 0 0 1 .7-.5h.2v-.1zm2.1-.8a.5.5 0 0 1-.4.3h-.1l.3-.2h.3a.2.2 0 0 1-.1-.2zm1.2-.2c-.1 0-.1 0 0-.1zm1.9-2H82a2.8 2.8 0 0 1 0-.4c.3-.2.3-.2.3-.1a.9.9 0 0 1 .1.4zm.6-7.3a.2.2 0 0 1 0-.2l.2-.2a.2.2 0 0 1 .2.3c-.2.2-.3.2-.4.1zm1.4-.8zm1-.8zm1.2 4.6h-.2v-.2h.2zm.2-7.3h-.1v-.2h.2zm1 5.8h-.1c-.2 0-.3-.1-.2-.3l.2-.2c.2-.1.3-.2.4-.1zm.8-6.1zm.1-1.2v.2h-.1V76h.1a.7.7 0 0 1-.1.2zm.4-1.7V74.2h.1a.2.2 0 0 1-.1.2zm.3 7.5l-.1-.1zm1.2-3.2h-.1.2zm.8-1.4zm.6.1l-.3.3c-.1.1-.2 0-.1-.1l.2-.2c.1-.1.2-.1.3 0zm.2-8h.1v.2h-.1s-.2-.1-.1-.2zm.4 8.4c-.2.3-.3.2-.4.3l.4-.3zm.9-12h-.2l-.2.6h-.1l.3-.5h.2s0-.1-.1 0zm1-2.7a.5.5 0 0 1 0-.2v.2zm-.4-.6v.2c0 .1-.1.2-.2.2h-.2l-.2.5a.2.2 0 0 1 0-.1 1.2 1.2 0 0 1 .2-.4.9.9 0 0 1 .2-.5h.2a.5.5 0 0 1 0 .2zm-.3-1.1v.7l-.3.2c.1-.1.2 0 .3 0v-.7l.2-.4v-.4c-.1 0-.1 0-.2-.2h.1c.1.1.1.2 0 .3v.2c.1.2.1.2.3.4v.3h-.2zm.7 10.5v.2l-.2.2a.4.4 0 0 1 .1-.3l.2-.2c0-.1 0 0-.1.1zm0-11.2zm.7-28.1v-.4c0-.1.1-.1 0-.2l-.2-.7h.4c.1 0 .2.1.2.3v.6c.1.4 0 .5-.2.5zm0 1.5H95v-.3h.1v.1a.1.1 0 0 1 .1.1zm-1.8-8.8h.1l1 1.5.4.7a.2.2 0 0 0 0 .1c0 .2.1.3-.1.3h-.8l-.6-.9a1.8 1.8 0 0 1-.3-.7c0-.2.1-.2.2-.3v-.3c.1-.5.1-.6.2-.5zm1.5 7.6h-.2l-.6-1.3h.1c.1 0 .3.2.4.4a2.6 2.6 0 0 1 .2.9h.1zm-1.4 2.6l.3.8-.3-.2a.5.5 0 0 1-.2-.3c0-.1 0-.3.1-.3zm-.1-6v.2c0 .1 0 .1-.1.1zm-.4-4.7h.1v.1h-.1zm-1.4-1a.4.4 0 0 1 0-.1h.1v.2h-.2zm1.1 11a1.1 1.1 0 0 1-.2-.5.3.3 0 0 1 0-.3h.1v.8zm.4 2.3h-.1V36h.1v.2c.1.2.1.3 0 .3h-.2l.3.7c0-.1 0-.1-.1-.1zm0-8.6v-.2a2.4 2.4 0 0 1-.8-1.2l-.4-1h.1l.9.5.3.2c.1.1.3.4.2.5s0 .4 0 .6c-.1-.1-.3-.1-.3.1a.8.8 0 0 1 .2.4.2.2 0 0 1 0 .1zm.1 12.6a.2.2 0 0 1 0-.1zm0-2.7a.7.7 0 0 1 .1-.5h.1a.6.6 0 0 1 .2.4.4.4 0 0 1 0 .3c-.1 0-.3-.1-.3-.3zm.6 1.4l-.4-.3c0 .1.1.1.1.2v-.2h.3v.3zm0-1.5v-.8l.3-.3.6 1.5.2.6v.9a4.5 4.5 0 0 1-.4-1.3c-.2-.1-.3 0-.5-.2a.9.9 0 0 1-.1-.5zm1 10.4c0 .1-.1.1-.1 0h.1zm-.7-8v-.3h.1v.2zm.2 8.5h-.1v-.2c.1 0 .1 0 .1.1zm.1-9.2a.6.6 0 0 1-.1-.5.5.5 0 0 1 .2.3zm0 .7h.1v.2h-.1a.2.2 0 0 1 .1-.4zm.4 20.7h.1a.4.4 0 0 1 0 .1zm.4-9.5a2.2 2.2 0 0 0 0 .6H95l-.4-.5-.4-.6a.4.4 0 0 1 .1-.3h.2c.1.1.1.1.2-.1v-.2.1h.2v-.2.9zm.2-10.3h-.1c.2-.4.2-.3.2-.3zm.2 6v.2zm.6-11.7a2.9 2.9 0 0 0 0 .5l-.6-1.5h.1l.3.6.2.4zm-.2-2.6h.1a.8.8 0 0 1 .1.4H96a.7.7 0 0 1-.1-.4zm.4 32.7h-.1c-.1 0-.1-.2 0-.2h.1a.7.7 0 0 1 0 .2zm0-17c-.1 0-.2-.2-.2-.3.1 0 .2.1.2.2zm.1-13.2v-.2a.4.4 0 0 1 0-.1v.3c.2.1.1.1.1 0zm0-3.8c-.3 0-.2.4-.3.5l-.3-.7-.2-.4a1 1 0 0 1-.1-.6v-.2h-.1c-.1-.2-.2-.4-.1-.5h.2l.2.2h.1V30h.1l.2.2a.2.2 0 0 0 0-.2c-.1-.4 0-.5.2-.5s1.2 2.3 1.7 3.4h-.2l-.2-.6c-.1-.2-.1-.5-.3-.6l-.2.4c-.1.1-.2.2-.4 0zm1.5 3.5a.2.2 0 0 1 0 .1h-.1v-.1zm-.6 3l-.2-.2v-.3h.2a.4.4 0 0 1 0 .2zm0 14.7l.1-.1zm.1-19.8h-.1v-.2a.3.3 0 0 1 0-.2v-.2l.2.4c.1.1.1.2 0 .2zm-.7 15.6h.1v1.3h-.2a2.6 2.6 0 0 1-.2-.9.9.9 0 0 1 .4-.4zm-.1-14.6v.2zm.8 32v.3l-.5.5c-.1 0-.2-.2-.3-.3v-.2h.1c.1 0 .1 0 0 .1v.1a2.1 2.1 0 0 0 .5-.7c.1-.2.2-.3.3-.2a.3.3 0 0 1 0 .3zm.1-8.3h-.1v-.5-.7a1.2 1.2 0 0 1 .1.4c.1.2.1.5.1.7zm.4 5.2c0 .1-.1.1-.1.1a.2.2 0 0 1 0-.2h.2zm.4-12c-.1.1-.2.1-.3 0v-.9h.2c.1.1.2.2.3 0h.1l.2.5c.1.2 0 .4 0 .6a1.3 1.3 0 0 0 0 .2c.1.1.3.2.4-.1s.1-.1.2.1v.4c-.1 0-.3-.1-.4.1h-.4l-.4 1a.7.7 0 0 0 0 .2h.5v.4c-.2-.1-.5-.1-.7-.1s-.1 0-.2-.4l.3-.9h.1c.1.1.2-.1.2-.2v-.9zm-.3-8.7c.1-.2.2-.3.3-.3s.3.2.3.4a.5.5 0 0 1 0 .2l-.2.3-.4-.3a.6.6 0 0 1 .1-.4zm1.4 5.7c.1 0 .1 0 .1.2v1.6a2.1 2.1 0 0 1-.2-1.1 6.4 6.4 0 0 0 0-.7v-.9H99v-.2c0-.1 0-.3.1-.3h.2a1 1 0 0 1 .2.5v-.4h.1a1.7 1.7 0 0 1 0 .7 1.1 1.1 0 0 1-.2.5h.1zm0 2.6v-.2h.1v.2h-.1a.3.3 0 0 1 0-.1zm-.2 4.3v-.2zm-.2 5.1c0 .1-.1.2-.1.1a.3.3 0 0 1 0-.2h.1zm-.2-5.7a.2.2 0 0 1-.1.2h-.1c0-.1 0-.2.1-.2zm-.8 1h-.1a1.4 1.4 0 0 1 0-.2zm.3 2.6c0-.1 0 0 0 0a.4.4 0 0 1-.1-.4c0-.1.1-.3 0-.3v.2H98V57a.4.4 0 0 1 .2-.4c.1-.1.1-.4.2-.6h.1c.2.1.2.6 0 1a.9.9 0 0 0-.2.4zm.3.3c0-.3.1-.5.3-.5a1 1 0 0 1 0 .3c-.1.2-.2.3-.3.2zm.3 4.4a.9.9 0 0 1-.1-.6l.2-.6V63zm.4.6zm.2-1.4v.3l-.2.6H99a1.2 1.2 0 0 1 .1-.4l.3-.6h.1a.3.3 0 0 1 0 .2zm.1 0v-.5zm1-5.5a.7.7 0 0 0-.2.6 1.3 1.3 0 0 0 .1.5v.9l-.8.4c-.2-.3-.1-.8 0-1.3h-.1a.4.4 0 0 1 0-.3 1.9 1.9 0 0 0 .4-.7c.1-.2.2-.3.3-.4v-.2a1.2 1.2 0 0 0 .3.6zm-.3-4.6s.1 0 0 .1zm0 4zm-.1-9.9a.6.6 0 0 0-.2.4 1 1 0 0 0 0 .2.9.9 0 0 0 .1.5v.3a.2.2 0 0 1 0 .1h-.2V47h-.2c-.1 0-.1-.2-.2-.4s0-.3.1-.4.1 0 .1-.1.1-.5.3-.5v.4c.3.1.3.2.2.3zm-1.8-5.8h.1c.2.1.1-.3.2-.4 0-.1-.1-.2 0-.2v.1l.2.4.3.2c.1 0 .2 0 .2.2a1.4 1.4 0 0 1 .1.5 2.5 2.5 0 0 0 0 .6v.3c.2-.1.3-.2.5.1v.6c-.1.1-.3-.2-.3.2a3.3 3.3 0 0 1-.3.8v.4c.1.2.1.4.2.1h.4a.8.8 0 0 1 .3.6h-.6c-.2 0-.3.2-.2.5h-.1c-.1-.3-.1-.3-.2-.2s-.2 0-.2-.2 0-.7.2-.8 0-.3-.1-.5-.2-.3-.1-.5c0-.3 0-.5-.1-.5s-.3-.5-.4-.4v-.2a6.7 6.7 0 0 1-.1-.7 2 2 0 0 1 0-.9zm-.2.5v.2c0 .4-.1.7-.3.7a8.9 8.9 0 0 1-.4-1.5l.2.4c.3 0 .4.1.5.3zm.3-6.1c0 .1-.2-.1-.2-.3a1.4 1.4 0 0 1-.1-.5h.3l.3.6zM49.4 102.8h-.5l-1-.2h-1.5L45 102l-1.4-.3-1.4-.3-1.4-.4-.7-.2h-.7l-1.4-.5-.7-.2-.7-.3c-2.2-.8-4.4-1.7-6.5-2.7l-1.6-.7-1.5-.8-1.5-.8-.7-.4-.4-.2-.4-.2-1.3-.7-.4-.2H22c-.1 0-.2.1-.2.2v.3l.2.4 1 .7 1 .7 1.9 1.3 1.9 1.2 2 1.2a41.1 41.1 0 0 0 8.4 3.5 39.2 39.2 0 0 0 9.1 1.5H50a3.4 3.4 0 0 0 1.7-.5l-1.9-.3zM42.5 95.7zM59.5 96.2zM50.8 8.5zM50.6 8.5zM65 10.4zM100.6 56.8zM27.7 5.9zM72.5 8.1zM90.7 80.9zM86.9 85.8zM93 28.1zM100.2 40.6zM94.4 56.5zM82.5 14.3zM82.7 21.3zM75.5 15.9zM80.5 19.8zM75.5 15.9zM87.4 18.5zM87.4 18.5zM13.2 26.5zM18.1 20.9zM23.2 15.2zM18.6 15.3zM21.2 17.6zM23.1 15.2zM21.5 18.2zM27.5 13zM34.6 3.9z" fill-rule="evenodd"/><path d="M34.3 3.6c.2 0 .2.2.3.3l.3-.2 1-.3 1-.3h2.3l.6-.2.3-.4A.2.2 0 0 0 40 2c0-.1.1-.2.3-.3l1-.3h.7c.2 0 .2.1.1.2h.3l.2-.2c.1.1.3.1.2.3.1-.1.4-.3.4-.4H43c-.5.1-.7-.1-.9-.2h-1.7l-.6.3c-.3.1 0 .2-.2.3h-.3c-.1-.2-.3-.3-.7-.1h-1.1l-.6.3.2.2c.1.1 0 .2-.2.2l-.9.3-1 .3-.5.2-.3.2c-.2.2 0 .2.1.3zm4.2-1.7zm-.5.6zm-1.1.4c.1 0 .1 0-.1.1h.1zm-1.9.8zM38 2.4zM43.2 1.5zM42.1 1.1zM42.9 1.4zM11.4 27.3zM.3 45.3zM9.1 73.6l-.7-1.3v-.2a.3.3 0 0 0 0-.3l-.3-.4-.3-.5h-.2l-.6-.4c-.1 0-.1.1 0 .2v.2a2.3 2.3 0 0 0 .5.6v.2h.1c-.2 0-.2.1-.1.3a6.7 6.7 0 0 1 .5 1.1 1.7 1.7 0 0 0 .1 1l.3.4c.2.2.4.5.6.5s.2-.2.3-.3 0-.1 0-.2v-.4zM23.6 13.1h.4l.5-.3h1.7c-.1-.1.2-.4 0-.5s0-.1-.1-.2 0-.3.2-.5h.1c.1-.1.1-.2 0-.2h-.6c0 .2-.3.3-.4.4a1.1 1.1 0 0 1-.6.3l-.3.2c-.1.2-.1.2-.4.3h-.5l-.2.2c.1.1.1.2.2.3zm2-.9zM5 39.8zM55 3.5zM8 23.6l.3-.2H9c.1 0 0 .1 0 .2a3.6 3.6 0 0 0-.5.9l.3-.2.5-.8a.8.8 0 0 0 .1-.4c0-.2-.1-.2-.2-.1h-.3a2.2 2.2 0 0 1 .6-1v-.2h-.3L9 22l-.2.5a1.2 1.2 0 0 1-.4.7c-.2.1-.2.4-.4.5a.1.1 0 0 0 0 .1zM16.4 20.1a2.1 2.1 0 0 0-.6.8l-.2.3h.2v.2h.3c.1-.1.2-.2.1-.3h-.1c-.1-.1 0-.3.2-.5l.3-.2V20c.2-.2.1-.2-.2.1zM16.9 20.4zM6.5 66.6h.1a2.1 2.1 0 0 0-.3-.9v.2c-.1.2-.1.2-.3 0l-.2-.3c-.1-.1-.2 0-.1.1v1.1c0 .2.2.4.3.3s.2 0 .2-.3.2-.2.3-.2zM15 15.6zM14.8 16.3c0 .1.1.2.2.1h.4l.9-1a4.3 4.3 0 0 0 .9-1l-.4.2-.4.4-.7.6-.3.2c-.1 0-.1-.2-.3-.2zM7.7 69.5zM7.4 69.9c0 .1 0 .3.2.4a2.5 2.5 0 0 1 .6.7l.4.6h.1l-.6-1.3-.4-.8c-.1 0-.2.3-.3.4zM33.9 90.6a1.5 1.5 0 0 1 0 .3l.2.2h.7c.2 0 .2-.1.1-.2s-.3-.1-.2-.2l-.3-.2-1.2-.4.6.4zM19.4 80.3l-.9-.6h-.2v.2l.7.7.6.5a1.6 1.6 0 0 1 0-.2.6.6 0 0 0-.2-.6z" fill-rule="evenodd"/><circle cx="19.7" cy="81.1" transform="rotate(-72.8 19.674 81.082)"/><path fill-rule="evenodd" d="M19.7 81.1zM32.9 91.5c.2.1.4.1.4-.1a1.1 1.1 0 0 0 0-.4l-.2-.2h-.7c0 .3.2.5.5.7zM43.8 95h-.6v.1h2.1l-1.2-.1zM16.2 22.1h.1a.1.1 0 0 0 0-.1l-.5-.2h-.3v.7l.3-.3zM35.9 91.9h1.3a1.7 1.7 0 0 0-1.5-.3c0 .2.1.3.2.3zM35.6 92.3l-1.2-.3h-.1a2.4 2.4 0 0 0 1.4.4h-.1zM14.1 82.3h-.3l1.1 1.2c.2.2.3.2.4.1l-.8-.8zM22.6 8.6l-.6.2h.2L22 9c-.1.1 0 .2.1.1s.4-.2.4-.1l.4-.7zM39.5 94h.7v-.1l-.9-.3h-.2c-.1 0-.1.1 0 .2z"/><path d="M12.3 26.4a2 2 0 0 0 .1-.4.5.5 0 0 1 .3-.4c0-.3 0-.3-.2-.1h-.1c-.1.1-.2.1-.2-.1v-.3c0-.1 0-.2-.1-.2h-.2l.2-.3h.3l.3.4.5-.4h.1a.1.1 0 0 0 0-.1h-.1c-.3.1-.3 0-.2-.3s-.1-.4-.4-.1l-.5.5c-.1.1-.2.1-.2 0v-.4h-.2l-.3.2-.4.8-.2.2.2-.3.3-.5.7-1 .5-.7.5-.6.8-1.2.7-1.1.3-.5.3-.5c1.1-1.6.7-1.7-1-.2a50 50 0 0 0-5 5.2h.2l-2.2 2.8-.5.8-.3.4-.3.4-1 1.7-.3.7a.6.6 0 0 0-.3-.6c-.1 0-.4.2-.4.4v.2c.2-.2.2-.2.3.1a1.2 1.2 0 0 0 .1.5c-.4.8-.8 1.6-1.1 2.4l-.2.6v-.5l-.2-.2h-.2c0 .3-.2.7 0 .8.1.2 0 .4-.3.7v.2c0 .1.1.2.1.1v-.2l-.3.9v1.4h-.5c-.1 0-.2.1-.2.3v.3l.4-.4-.2.7h-.3a2.9 2.9 0 0 1-.4 1.1.6.6 0 0 0 0 .2h.2c.1 0 .1.1 0 .3l-.2.6H.8a.3.3 0 0 0 0 .2c.1.3.3.3.4.4a.5.5 0 0 1 0 .2v.2l-.3.7-.4.5c.1.5.4.6.6.5v2.3c0-.2-.1-.3-.2-.3H.5a.6.6 0 0 1-.1-.5l-.2-.2a5.3 5.3 0 0 0-.1 2l.3.3a.5.5 0 0 1 0 .2h.1c-.1.1-.2 0-.3-.1s-.2.1-.2.3.1.9 0 1.4v.2h.3c-.1-.7 0-.8.3-.9h.2v1.5L.4 52v6c0 .2.1.4.1.6l.3 2.1.2 2.1v1l.2 1 .2 1 .3 1a51.4 51.4 0 0 0 2.2 6.3l.7 1.6.4.7.4.6.7 1.1.2.3.2.2.4.4.7.8.4.5.4.5.7 1 .3.4.3.3 1 .9.7.5.5.2c.2.1.2-.1.1-.3l-.2-.4-.3-.5-.8-1.3-.4-.7-.3-.6-.7-1.2-.5-1.1a57.2 57.2 0 0 1-3-7.3l-.5-1.6-.2-.8-.2-.8-.4-1.6-.4-1.6-.2-.8v-.8l-.3-1.5-.2-1.5V58c0-.2-.1-.5-.1-.8l-.2-1.5v-4.3-.7V47.3a1.3 1.3 0 0 1 .3-.6 3.5 3.5 0 0 0 .4-.7 1.5 1.5 0 0 0 0-.3c-.1-.2-.2-.3-.3-.3v.2h.1a4.2 4.2 0 0 0 0 .6 1.3 1.3 0 0 1 0-.6l-.3.2v-.9a2.4 2.4 0 0 0 .2-.7h-.4l.2-1.1c.1-.4.1-.8.2-1.1l.3-1 .2-1h.1c.2.3.4.2.7-.1l.2-.2c.1.2.2.1.4 0s0-.3-.1-.4h-.1a.3.3 0 0 1 0-.3l.2-.2.2.3v-.6l-.6.4a1.6 1.6 0 0 0-.5.7h-.2c-.1 0-.1-.1-.1-.2v-.2h.1c.1 0 .1 0 .2-.3v-.3l-.4.5v-.5h.1v-.2l.2-.6c.1.1.1.2.3.1s.2.2.3.2h.1c.1 0 .2-.1.2-.3a.9.9 0 0 0 0-.2 5.8 5.8 0 0 1-.1-1h.1v.2H5v-.3h.1q.7-1.9 1.6-3.7H7c.2.1.2.1.1.5v.2H7v.4h.1l.4-.6a1.8 1.8 0 0 1 0-.3c0-.3 0-.4-.1-.5v-.2a.9.9 0 0 1 .3-.7h.1a1.2 1.2 0 0 0 .4-.7c0-.2-.1-.2-.2-.1l-.2.3.5-1 .3-.6.3-.6.7-1.2.6-1.1h.3c.1.1.1.3-.1.6l-.2.3c-.1.1-.1.2 0 .1h.2a7.5 7.5 0 0 0 .8-1.1c.1-.3.3-.3.4-.1a2 2 0 0 1 0 .3h.1c.1 0 .1.1 0 .4l-.2.4.5-.4a1 1 0 0 0 .3-.7zM.4 48.4c0-.1.1 0 .1.1zm1.2-8.7V40.3a1.2 1.2 0 0 1 0-.3c-.1-.2-.1-.2 0-.4h.1zm9-13.6zM17.7 77.5h-.2l.3.7.3.2h.2c.1 0 0-.2-.1-.3zM13.5 26.1zM13.5 26.1z" fill-rule="evenodd"/><path d="M13.2 26.4l.2-.4v-.4c-.1 0-.3.2-.3 0s-.2-.1-.3-.1 0 .1 0 .2a3.7 3.7 0 0 0 .4.7zM12.7 25.5zM13.2 26.5zM3.9 30.9zM6.3 39.9h-.1v-1L6 39a.9.9 0 0 0-.1.7.5.5 0 0 1 0 .3v.3h.4v-.2c.1-.1 0-.1 0-.2zM7 66.4a.3.3 0 0 0 0-.2v-.3l-.3-.7h-.3a.6.6 0 0 0 0 .2 4.2 4.2 0 0 0 .4.9zM56.3 8.9c.3 0 .4 0 .4-.2a.4.4 0 0 1 .2-.3h-.3c-.2 0-.3 0-.2.2s0 .2-.3.2h.2zM66.4 11.1a1.4 1.4 0 0 0 .9.2l.2-.2-.7-.3zM67.5 11.2zM101.3 51.2v.3a.6.6 0 0 0 0 .1v.3a.5.5 0 0 0 0 .1v.3c0 .1.2-.1.2-.3v-.5a.7.7 0 0 0 0-.2c0-.1-.2-.2-.2-.1zM16.4 14.4h.2v-.7l.2-.4h-.1l-.4.3v.3c0 .1 0 .2-.1.3s-.2.3 0 .4zM16.7 14.3h-.1.1zM80.9 20.7c-.1-.2-.4-.3-.6-.5h-.2c-.1.1 0 .3.1.4h.2c.3.3.6.4.9.7zM56.5 4.4c-.2-.1-.6 0-.5.1s0 .3.2.4h.1c.4-.1.4-.2.3-.4zM42.9 1.4zM43.3 1.5h.4a.2.2 0 0 0 0-.2h-1l.3.3zM42.7 1.1zM41.2 1.1zM42.1 1.1h.5V.8h-.3l-1 .2c-.2 0-.2.1-.2.2h.8zM19.6 11.2l.6-.5v-.1h-.6c-.1 0-.3.2-.3.3s.1.3.3.3zM87.9 18.8h-.1.1zM49.7 95zM15.5 23.1zM15.7 23.8v-.2c-.1-.2-.3-.2-.3-.5l-.2.7c0 .2 0 .3.1.3h.2zM36.5 92.7l.3.2c.3.1.5.1.5-.1h-.1l-.6-.2c-.1-.1-.2 0-.1.1zM34 7.6c-.2 0-.3.1-.3.2h.5l.3-.2c.1-.1.1-.2 0-.2zM90.2 33.7v.2h.4c.1 0 .1-.1.1-.2l-.3-.5h-.1c-.1.2-.2.3-.1.5zM7.9 33.9c.1.1.2 0 .3-.1a.5.5 0 0 0 .1-.3c0-.2-.1-.1-.2-.2H8v.2a.5.5 0 0 1-.1.4zM70.2 92.1c.2-.1.3-.3.2-.4h-.3c-.2.1-.3.3-.3.3zM7.9 33.6c-.2.1-.4.4-.7.7l.7-.6a.4.4 0 0 1 0-.1zM7.9 33.6zM65.1 6.4h.8zM14.6 22.5h.2l.2-.5c.1-.1.1-.2 0-.2h-.3c-.1.1 0 .2 0 .2a.3.3 0 0 1 0 .1h-.1c-.1.3-.1.4 0 .4zM31.2 4.5l.5-.2h-.5v.2c-.2 0-.1 0 0 0zM76 9.3c-.1 0-.1.1-.1.1a1.4 1.4 0 0 0 .6.5h.1l-.4-.5zM16.6 85.5v.3l.2.2h.2c0-.1 0-.2-.1-.3zM17.5 19.9v-.1l-.6.7h.3l.3-.4a.2.2 0 0 0 0-.2zM16.9 20.5zM13.4 18a9.8 9.8 0 0 0 .8-.9 2.5 2.5 0 0 0-.8.9zM3.6 43.9l.5-.3v-.2h-.4zM58.3 95.4v.1h.7a.7.7 0 0 0-.7-.1zM62 94.7v-.2l-.4.2h.4zM6 68.2c-.1.1 0 .5.2.6h.1a.7.7 0 0 0-.2-.6zM78.8 18.8l-.4-.5h-.1zM12.1 19.2l.5-.3h.1v-.2h-.1l-.5.4v.2zM33 4.1zM33 4.4h.2l.2-.2c0-.1 0-.2-.2-.1H33zM96.8 31.1h-.1c-.2.1-.2.4 0 .8h.1a1.8 1.8 0 0 0 0-.8zM5.3 40.7h-.1c-.2.3-.2.4-.1.6h.1v-.7zM5.3 41.5zM6 36.9a.5.5 0 0 0 0 .2h.3c0-.3 0-.4-.1-.3zM14.4 20.9h-.3v.2h.1zM54.4 3.8zM54.2 3.6h.5c.1-.1 0-.2.2-.2h-.6c0 .1-.1.1-.1.2zM15.8 20.3v-.2h-.2l-.2.2h.3zM9.4 74.1zM9.8 74.4v-.2h-.4l.3.3zM58.9 94.8zM29.2 9.6c.4-.2.4-.3.2-.4l-.2.2H29v.1zM7.3 68.5c.1 0 .1-.2 0-.3V68h-.2a.5.5 0 0 0 .2.5zM18 20.9zM18 20.9l-.4.3c-.1.1-.1.1 0 .1h.4v-.4zM87.8 18.8zM87.7 18.8c-.1.1-.2.1-.1.3a.9.9 0 0 0 .5.4l-.3-.7zM19.7 81.5h.1v-.1s-.2-.3-.2-.4-.2.1-.3.2h.1zM19.4 81.2zM77.9 10.9zM77.9 10.7v.2c.3.2.3.2.4.1 0-.1 0-.2-.1-.2zM57.5 8.8h.1v-.1l-.6-.3zM14.5 24.2V24h-.1a1.5 1.5 0 0 0-.4.6l.4-.4zM24.7 13.4h-.1v.1h.3v-.1zM25.3 11.3h.1a.6.6 0 0 0 .2-.5h-.2a.1.1 0 0 1 0 .1zM4.7 42.4a.3.3 0 0 0 0 .3c.1.1.1 0 .2-.3H5l-.2-.3zM5 42.3zM6.8 25.6H7c.1-.1.1-.2 0-.2-.1-.1-.2-.1-.2 0a.3.3 0 0 0 0 .3zM62.4 6.6h.3a1.7 1.7 0 0 0 0-.3l-.4.2zM62.6 6.3zM14 23.4h.2a.8.8 0 0 0 0-.2h-.1v.2zM33 4.1l-.7.2H32a1.4 1.4 0 0 0 1-.2zM33 4zM65.6 10.2l-.2.2h.1c.3.1.4.1.4-.1a.6.6 0 0 0 0-.2zM23.9 14.7h.2c.1-.1.2-.2.1-.2zM7 26.6v-.2l-.6.4h.1c.2.1.4 0 .5-.2zM10.6 66.8v.3h.1v-.3zM6.2 27.9zM6.4 27.2v-.3a1.6 1.6 0 0 0-.2.9l.2-.3c.1-.2 0-.2 0-.3zM59.6 8.8h-.2V9h.2v-.2zM59.4 9zM6.3 34.5a.2.2 0 0 0 0 .1h.1a.5.5 0 0 0 .1-.6zM42.8 95.4h-.2c-.1 0-.2.1-.1.1h.3v-.1zM24.7 17.4l-.2-.2h-.2c-.1.1-.1.1 0 .1s.2.3.4.1zM24.9 17.4zM71.5 13.9c.1 0 .1-.1 0-.2h-.1c-.1 0-.2.1-.1.2zM3.6 32.7v-.4c-.1 0-.2.2-.2.3s.1.2.2.1zM19.4 79.1v.1h.1v-.1zM14.9 28.6l-.3.4c.1-.1.2 0 .4-.2v-.2zM35.3 90.6zM22.8 19v-.2h-.2c-.1.1-.1.2 0 .2zM45.1 94.7zM92.4 66.1c.1-.1.1-.2 0-.3h-.1v.2zM15.4 24.1zM15 24.4c0 .1.2.1.3 0s.1-.2.1-.2l-.3.2zM16.4 22.6c.1-.1.1-.1 0-.1h-.2a.3.3 0 0 0 0 .2zM5.7 42.6c0 .1 0 .2.1.1l.2-.2h-.2c-.1-.1-.1 0-.1.1zM5 42.3zM5.3 42c-.1-.1 0-.1 0-.2v-.2a2.7 2.7 0 0 0-.3.8l.4-.4s-.1-.1-.1 0zM5.3 41.7zM8.5 30.3h-.1v.2h.1c.1 0 .1-.2 0-.2zM6.9 33.1h-.1v.2H7v-.2zM5.2 64.6v.2-.2zM4.6 38.9zM26.1 93.1zM10.8 20.5v-.2h-.1c-.1.1-.1.2-.1.3zM25.8 6.5zM25.8 6.8h.2c.1 0 .1-.1.1-.1h-.3c0-.1-.1.1 0 .1zM2.3 36.5v-.2c0-.2 0-.2-.1-.1s0 .3.1.3zM.7 42.6h.1v-.2H.7a.4.4 0 0 0 0 .1zM48.3.4h0zM98.6 36.5zM98.7 37h.1a.8.8 0 0 0-.2-.4.7.7 0 0 0 .1.4zM16 16.6v.2a.1.1 0 0 0 0-.1zM70.7 101.2zM77.9 10.8zM77.4 10.5c-.1 0-.1 0 0 .1l.4.2-.3-.3z" fill-rule="evenodd"/><path d="M16.1 13.8l.2-.2H16l-.1.1zM8.1 25c.1-.1 0-.2 0-.1l-.2.2zM15.4 83.5zM15.3 83.4l.1.1-.1-.1zM5.9 35.6H6a.2.2 0 0 0 0-.1h-.1zM5.1 61.7a.4.4 0 0 0 0-.1zM8.2 31.4h.1c.1 0 .1 0 .2-.2V31zM26.1 11.2zM26.3 11.1zM29.8 9.1zM10.2 28.4H10v.1h.1zM4.8 56.4s0-.1 0 0zM55.7 5zM74.4 90.4l-.3.2h.1zM7.5 35.7zM6.3 40.3zM6.5 40.4zM64.4 7.6h-.1.1zM8 37.4h-.2c0 .1 0 .1.1.1v-.2a.1.1 0 0 0 .1.1zM27.3 13.2zM26.8 13.4h.2l.3-.2h-.5zM94.2 50.4zM94.1 50.2h.1a.7.7 0 0 0 0-.2zM35.7 91.4zM66.3 10.7zM62.8 10.2zM36.5 90.9zM15.3 27.9h.1v-.2zM3.2 33.3v-.1l-.1.1v.1l.1-.1zM9.9 20.9l-.1.1h.1v-.1zM.1 50.4c0 .1.1 0 .1 0H.1zM.5 45.1l-.1.4h.1v-.4zM18.4 12c.1-.1.1-.1 0-.1zM23.4 8.3zM.3 50.4a1.3 1.3 0 0 0 0-.7 1.4 1.4 0 0 0 0 .7zM.3 49.7zM.3 50.4zM1.5 39.9zM16.4 14.4zM17 14h-.2v.2l.2-.2zM10.5 21.4l-.1.1.1-.1zM100.8 50.5h.1c0-.1-.1-.1-.1 0zM34.4 4.1zM4 41.6a.1.1 0 0 0 0 .1zM5.8 34.9h.1s0-.1-.1 0zM78.2 12h-.1.1zM79.3 12.9l.2.1-.2-.1zM50.8 3.9zM51.1 3.8zM8 31.6v-.2zM8.2 31.4zM28.8 9.4zM28.8 9.4zM40.1 5.1zM4.2 47v.2zM16 82.3zM7.7 69.5zM7.5 69.1l.2.2V69zM27.8 10.3zM28.5 9.8v.1h.1l-.1-.1zM5.3 42v0zM14.1 22.7l-.1.1.1-.1zM6.6 37.4c-.1 0-.1.1 0 .1zM64.3 6.8h.1-.1zM74.4 90.5v-.1.1zM23.5 14zM6.5 39.1v.2h.1zM6.9 37.8zM17.5 19.8zM30.7 9.8h-.1s0 .1.1 0zM30.8 9.6zM55 5.3zM65.9 94.2zM13.9 24.1zM15.3 22.6c.1.1.1 0 .1-.1zM69.3 92.3zM24.4 14.1h.1c.1-.1.1-.1 0-.1zM25.9 13.6v-.1.1zM25.7 13.8zM31.3 91.3zM31 90.9zM91 69.4zM29.4 12.5zM38.2 93.1c.1 0 .1-.1.1-.1h-.1zM92.5 64.9a.3.3 0 0 0 0-.1zM54 94.6zM94.4 56.5zM94.2 56.5zM25.3 86.4zM92.4 63.9v.1l.1-.1h-.1zM93.4 59.5v.2h.1v-.2zM28 87.9c.1.1.1 0 0 0zM8.6 58.6a.5.5 0 0 0 0-.1.5.5 0 0 0 0 .1zM31.7 89.3c-.1 0-.1 0 0 0zM10.2 64.6v-.1.1zM74.9 15.9a.1.1 0 0 0 0-.2h-.1v.1zM77.5 17.8zM84 24.1zM84.1 24.2zM57.1 9.4zM38.3 93zM17.6 21.7l.1-.1h-.1v.1zM19.2 19.4v.1zM19.2 19.2v.1zM17.3 21zM41.3 95.1zM25.9 13.6zM25.7 13.5zM17.3 20.9c.1-.1.1-.1 0 0zM17.3 20.9zM15.5 23.1zM18.5 19.1h-.1.1zM6 43.3v.1-.1zM5.7 39.3zM8.5 31zM9.2 29.6zM28.8 9.3v.1-.1zM4.5 43zM5.8 35.5a2 2 0 0 0 .1-.5zM56.6 3.2zM54 2.9h-.1.1l-.1.2.1-.2zM17.8 15.9zM88.2 19.5l.2.2zM95.5 30.7zM95.5 30.7zM88.7 19.6zM88.7 19.5zM15.4 16.3zM43.1 1.8zM90.8 81zM100.7 51.5zM100.7 51.5zM49.5 1h-.1.1zM7.2 26.4zM101 51.4v.1-.1zM100.3 40.6s0 .1 0 0zM15 15.6v-.3a.5.5 0 0 0 0 .3z" fill-rule="evenodd"/><path d="M14.7 15.7c.2-.1.2-.1.4-.4l-.4.4zM100.3 39.7h-.1v.1l.1-.1zM14.7 15.7h-.1zM14.6 15.3zM14.6 15.5zM53.4.2zM53.7.2zM35.6 2.3c.1 0 .1-.1 0-.1zM3.9 30.9zM1.5 38.5zM1.4 38.8zM1.4 38.5v.3-.2zM103.2 57.5zM75.7 16.6h-.1l.1.1v-.1zM73.7 15.2zM66.3 11.4zM24.9 17.4zM10 38.9c0-.1 0-.1 0 0zM21.5 82.1zM80.4 19.8zM80.4 19.8zM80.7 19.9zM80.5 19.8zM65 10.4zM54.7 94.5h-.1.1zM42.6 6.3h-.7a1 1 0 0 0 .6.3h.2v-.1h-.2c0-.1.2-.1.3-.2s0-.1-.1-.1zM40.5 7.6h.2zM41.3 6.7zM41.1 6.6zM39.7 97.4zM98.8 41.8zM75.7 11.8zM75.6 11.8zM33.4 9.5zM89.4 20.8h.1-.1zM94.2 27.3l.1.1-.1-.1zM50.1 6.2v-.1H50l.1.1zM92.4 26.8l.2.2h.1a.4.4 0 0 0-.2-.3zM92.9 27.8v.2zM82.6 14.4l-.1-.1v.1h.1zM59.5 96.1zM19.4 15.4l-.3.2v.2h.3l.5-.2c.2-.2.2-.3.1-.4s-.3 0-.6.2zM20.1 16.9zM20.1 16.9zM24.1 16.2h.2a.1.1 0 0 0 0-.1zM25.6 15.3zM25 15.8v-.1.1zM23.7 16.9z" fill-rule="evenodd"/></g></g>
			</g>
		</svg>
    